<svg display="block" role="presentation" viewBox="0 0 42 42" xmlns="http://www.w3.org/2000/svg"><defs ><linearGradient id="xtGevSJl7-687025469-linear-gradient" x1="0.49751243781094523" x2="0.5024875621890548" y1="0" y2="1"><stop offset="0" stop-color="rgb(88, 103, 113)"/><stop offset="1" stop-color="rgb(64, 75, 82)"/></linearGradient></defs><g d="M 0 42 L 0 0 L 42 0 L 42 42 Z M 3.151 38.85 L 3.151 3.15 L 38.851 3.15 L 38.851 38.85 Z M 29.602 18.578 C 29.582 18.63 29.559 18.681 29.542 18.735 C 28.623 21.542 27.705 24.349 26.786 27.156 C 26.706 27.402 26.621 27.645 26.538 27.89 C 26.442 28.173 26.262 28.351 25.941 28.347 C 25.37 28.341 24.799 28.339 24.229 28.347 C 23.921 28.351 23.713 28.211 23.603 27.876 C 23.351 27.102 23.093 26.33 22.84 25.556 C 22.38 24.146 21.923 22.735 21.463 21.325 C 21.177 20.45 20.888 19.577 20.599 18.703 C 20.589 18.673 20.572 18.647 20.539 18.579 C 20.525 18.728 20.507 18.836 20.507 18.944 C 20.5 20.31 20.494 21.677 20.492 23.042 C 20.49 24.537 20.492 26.031 20.49 27.525 C 20.49 27.665 20.472 27.806 20.457 27.946 C 20.435 28.141 20.335 28.262 20.17 28.307 C 20.085 28.33 19.996 28.343 19.909 28.344 C 19.12 28.347 18.332 28.347 17.543 28.345 C 17.444 28.345 17.345 28.328 17.246 28.313 C 17.089 28.288 16.997 28.196 16.974 28.02 C 16.947 27.802 16.917 27.58 16.917 27.36 C 16.915 23.241 16.915 19.121 16.917 15.002 C 16.917 14.646 16.94 14.291 16.953 13.935 C 16.959 13.749 17.018 13.675 17.21 13.653 C 17.251 13.648 17.292 13.651 17.333 13.651 C 19.016 13.651 20.699 13.65 22.381 13.652 C 22.498 13.652 22.614 13.675 22.731 13.691 C 22.93 13.718 23.068 13.847 23.142 14.054 C 23.239 14.321 23.328 14.591 23.411 14.864 C 23.732 15.918 24.047 16.973 24.369 18.026 C 24.748 19.27 25.131 20.512 25.527 21.805 C 25.568 21.713 25.595 21.667 25.611 21.617 C 25.887 20.738 26.162 19.859 26.437 18.98 C 26.769 17.924 27.101 16.868 27.434 15.812 C 27.615 15.237 27.795 14.662 27.978 14.087 C 28.107 13.679 28.144 13.651 28.529 13.651 C 30.077 13.651 31.624 13.651 33.172 13.652 C 33.247 13.652 33.323 13.661 33.398 13.675 C 33.506 13.694 33.562 13.772 33.568 13.896 C 33.577 14.064 33.589 14.232 33.589 14.399 C 33.59 16.755 33.587 19.111 33.589 21.467 C 33.591 23.405 33.6 25.343 33.602 27.281 C 33.602 27.503 33.59 27.725 33.567 27.946 C 33.545 28.169 33.448 28.276 33.254 28.321 C 33.18 28.338 33.103 28.344 33.027 28.344 C 32.297 28.345 31.568 28.345 30.839 28.345 C 30.633 28.345 30.427 28.348 30.221 28.343 C 30.146 28.341 30.07 28.327 29.996 28.31 C 29.84 28.275 29.743 28.159 29.717 27.987 C 29.691 27.816 29.676 27.64 29.676 27.467 C 29.673 25.871 29.676 24.277 29.673 22.681 C 29.672 21.652 29.667 20.622 29.66 19.593 C 29.657 19.257 29.64 18.923 29.629 18.587 C 29.62 18.583 29.611 18.579 29.602 18.576 Z M 10.857 17.723 C 10.229 18.241 9.556 18.488 8.854 18.645 C 8.431 18.74 8.003 18.759 7.574 18.742 C 7.448 18.737 7.38 18.669 7.355 18.529 C 7.352 18.509 7.349 18.489 7.349 18.469 C 7.349 17.904 7.349 17.339 7.352 16.774 C 7.353 16.545 7.359 16.317 7.362 16.089 C 7.364 15.801 7.41 15.731 7.659 15.691 C 7.903 15.652 8.149 15.63 8.393 15.593 C 9.005 15.5 9.586 15.3 10.115 14.929 C 10.379 14.743 10.597 14.501 10.767 14.204 C 10.828 14.097 10.895 13.995 10.959 13.889 C 11.046 13.747 11.167 13.676 11.315 13.661 C 11.368 13.655 11.421 13.652 11.474 13.652 C 12.391 13.652 13.309 13.652 14.226 13.653 C 14.302 13.653 14.379 13.66 14.453 13.677 C 14.593 13.711 14.639 13.775 14.646 13.941 C 14.655 14.155 14.664 14.37 14.665 14.585 C 14.666 16.664 14.669 18.743 14.666 20.822 C 14.662 23.116 14.652 25.41 14.645 27.703 C 14.645 27.723 14.645 27.743 14.645 27.764 C 14.643 28.181 14.547 28.337 14.132 28.343 C 13.22 28.356 12.309 28.347 11.397 28.347 C 11.379 28.347 11.362 28.347 11.344 28.347 C 11.012 28.323 10.91 28.213 10.878 27.832 C 10.867 27.692 10.859 27.551 10.859 27.41 C 10.858 24.268 10.858 21.125 10.858 17.983 C 10.858 17.911 10.858 17.84 10.858 17.725 Z" fill="transparent" height="42px" id="XZtKL3B3S" width="42px"><path d="M 0 42 L 0 0 L 42 0 L 42 42 Z" fill="transparent" height="42px" id="d4mJBPTYL" width="42px"/><g d="M 0 35.7 L 0 0 L 35.7 0 L 35.7 35.7 Z" fill="transparent" height="35.70000000000001px" id="p2v8PAT01" transform="translate(3.151 3.15)" width="35.69999999999996px"><path d="M 0 35.7 L 0 0 L 35.7 0 L 35.7 35.7 Z" fill="url(#xtGevSJl7-687025469-linear-gradient)" height="35.70000000000001px" id="xtGevSJl7" width="35.69999999999996px"/></g><g d="M 22.253 4.928 C 22.233 4.98 22.21 5.031 22.193 5.085 C 21.274 7.892 20.356 10.699 19.438 13.506 C 19.357 13.752 19.272 13.995 19.189 14.239 C 19.093 14.522 18.913 14.701 18.592 14.697 C 18.022 14.69 17.451 14.689 16.88 14.697 C 16.572 14.701 16.364 14.56 16.255 14.226 C 16.002 13.452 15.744 12.68 15.492 11.906 C 15.031 10.496 14.574 9.085 14.114 7.675 C 13.828 6.8 13.539 5.926 13.251 5.053 C 13.241 5.023 13.223 4.997 13.19 4.928 C 13.177 5.078 13.159 5.186 13.158 5.294 C 13.151 6.66 13.146 8.026 13.144 9.392 C 13.141 10.886 13.144 12.381 13.141 13.875 C 13.141 14.015 13.123 14.155 13.108 14.295 C 13.087 14.491 12.986 14.612 12.821 14.657 C 12.736 14.68 12.647 14.693 12.56 14.694 C 11.772 14.697 10.983 14.697 10.195 14.694 C 10.095 14.694 9.996 14.678 9.898 14.662 C 9.741 14.638 9.648 14.546 9.626 14.37 C 9.598 14.151 9.569 13.93 9.569 13.71 C 9.566 9.591 9.567 5.471 9.569 1.352 C 9.569 0.996 9.591 0.641 9.604 0.285 C 9.611 0.099 9.67 0.025 9.861 0.003 C 9.902 -0.002 9.943 0.001 9.985 0.001 C 11.667 0.001 13.35 0 15.033 0.002 C 15.149 0.002 15.266 0.025 15.382 0.041 C 15.582 0.068 15.719 0.197 15.794 0.404 C 15.89 0.671 15.979 0.941 16.062 1.214 C 16.383 2.267 16.699 3.323 17.02 4.376 C 17.4 5.62 17.782 6.862 18.179 8.155 C 18.22 8.063 18.246 8.017 18.262 7.967 C 18.538 7.088 18.813 6.209 19.089 5.33 C 19.42 4.274 19.753 3.218 20.085 2.162 C 20.266 1.587 20.446 1.012 20.629 0.437 C 20.758 0.029 20.796 0.001 21.181 0.001 C 22.728 0.001 24.276 0.001 25.823 0.001 C 25.899 0.001 25.975 0.011 26.05 0.024 C 26.157 0.044 26.214 0.122 26.219 0.246 C 26.228 0.414 26.24 0.582 26.24 0.749 C 26.241 3.105 26.238 5.461 26.24 7.817 C 26.242 9.755 26.251 11.693 26.253 13.631 C 26.253 13.853 26.241 14.075 26.219 14.295 C 26.196 14.518 26.099 14.626 25.906 14.671 C 25.832 14.688 25.755 14.694 25.678 14.694 C 24.949 14.695 24.219 14.695 23.49 14.695 C 23.284 14.695 23.078 14.698 22.873 14.693 C 22.797 14.691 22.722 14.676 22.647 14.66 C 22.491 14.624 22.394 14.509 22.368 14.337 C 22.343 14.165 22.327 13.99 22.327 13.817 C 22.325 12.221 22.327 10.626 22.325 9.031 C 22.323 8.002 22.319 6.972 22.311 5.943 C 22.308 5.607 22.291 5.272 22.281 4.937 C 22.271 4.933 22.262 4.929 22.253 4.926 Z M 3.509 4.073 C 2.88 4.591 2.207 4.838 1.505 4.995 C 1.083 5.09 0.655 5.109 0.225 5.092 C 0.099 5.087 0.032 5.019 0.006 4.879 C 0.003 4.859 0 4.839 0 4.819 C 0 4.254 0.001 3.688 0.004 3.124 C 0.004 2.895 0.011 2.667 0.013 2.439 C 0.016 2.151 0.062 2.081 0.31 2.041 C 0.554 2.002 0.801 1.98 1.045 1.943 C 1.656 1.85 2.237 1.65 2.767 1.278 C 3.031 1.092 3.248 0.851 3.419 0.554 C 3.48 0.447 3.547 0.345 3.611 0.239 C 3.697 0.097 3.819 0.026 3.967 0.01 C 4.019 0.005 4.073 0.002 4.125 0.002 C 5.042 0.002 5.96 0.002 6.878 0.003 C 6.953 0.003 7.031 0.01 7.105 0.027 C 7.244 0.061 7.29 0.125 7.297 0.291 C 7.306 0.505 7.316 0.72 7.316 0.935 C 7.318 3.014 7.321 5.093 7.317 7.172 C 7.313 9.465 7.303 11.76 7.296 14.053 C 7.296 14.073 7.296 14.093 7.296 14.114 C 7.295 14.531 7.198 14.687 6.783 14.693 C 5.872 14.706 4.96 14.697 4.049 14.697 C 4.031 14.697 4.014 14.697 3.996 14.697 C 3.663 14.673 3.561 14.563 3.529 14.182 C 3.518 14.042 3.511 13.901 3.51 13.76 C 3.509 10.618 3.509 7.475 3.509 4.333 C 3.509 4.261 3.509 4.19 3.509 4.075 Z" fill="transparent" height="14.700013502815391px" id="Y6RkktU7g" transform="translate(7.349 13.65)" width="26.253115438721544px"><path d="M 12.686 4.928 C 12.666 4.98 12.643 5.031 12.626 5.085 C 11.707 7.892 10.789 10.699 9.871 13.506 C 9.79 13.752 9.705 13.995 9.623 14.239 C 9.526 14.522 9.346 14.701 9.025 14.697 C 8.455 14.69 7.884 14.689 7.313 14.697 C 7.005 14.701 6.797 14.56 6.688 14.226 C 6.436 13.452 6.177 12.68 5.925 11.906 C 5.464 10.496 5.007 9.085 4.547 7.675 C 4.261 6.8 3.972 5.926 3.684 5.053 C 3.674 5.023 3.656 4.997 3.623 4.928 C 3.61 5.078 3.592 5.186 3.591 5.294 C 3.585 6.66 3.579 8.026 3.577 9.392 C 3.575 10.886 3.577 12.381 3.575 13.875 C 3.575 14.015 3.557 14.155 3.541 14.295 C 3.52 14.491 3.419 14.612 3.254 14.657 C 3.169 14.68 3.08 14.693 2.993 14.694 C 2.205 14.697 1.416 14.697 0.628 14.694 C 0.529 14.694 0.429 14.678 0.331 14.662 C 0.174 14.638 0.081 14.546 0.059 14.37 C 0.031 14.151 0.002 13.93 0.002 13.71 C -0.001 9.591 0 5.471 0.002 1.352 C 0.002 0.996 0.024 0.641 0.037 0.285 C 0.044 0.099 0.103 0.025 0.294 0.003 C 0.335 -0.002 0.376 0.001 0.418 0.001 C 2.1 0.001 3.783 0 5.466 0.002 C 5.582 0.002 5.699 0.025 5.815 0.041 C 6.015 0.068 6.152 0.197 6.227 0.404 C 6.323 0.671 6.413 0.941 6.495 1.214 C 6.816 2.267 7.132 3.323 7.453 4.376 C 7.833 5.62 8.215 6.862 8.612 8.155 C 8.653 8.063 8.679 8.017 8.695 7.967 C 8.971 7.088 9.246 6.209 9.522 5.33 C 9.853 4.274 10.186 3.218 10.518 2.162 C 10.699 1.587 10.879 1.012 11.062 0.437 C 11.192 0.029 11.229 0.001 11.614 0.001 C 13.161 0.001 14.709 0.001 16.256 0.001 C 16.332 0.001 16.408 0.011 16.483 0.024 C 16.59 0.044 16.647 0.122 16.652 0.246 C 16.661 0.414 16.673 0.582 16.673 0.749 C 16.674 3.105 16.671 5.461 16.673 7.817 C 16.676 9.755 16.684 11.693 16.686 13.631 C 16.686 13.853 16.674 14.075 16.652 14.295 C 16.63 14.518 16.532 14.626 16.339 14.671 C 16.265 14.688 16.188 14.694 16.112 14.694 C 15.382 14.695 14.653 14.695 13.923 14.695 C 13.717 14.695 13.512 14.698 13.306 14.693 C 13.23 14.691 13.155 14.676 13.08 14.66 C 12.925 14.624 12.827 14.509 12.802 14.337 C 12.776 14.165 12.76 13.99 12.76 13.817 C 12.758 12.221 12.76 10.626 12.758 9.031 C 12.756 8.002 12.752 6.972 12.744 5.943 C 12.741 5.607 12.725 5.272 12.714 4.937 C 12.704 4.933 12.695 4.929 12.686 4.926 Z" fill="rgb(255, 255, 255)" height="14.697033032321166px" id="t_hyitKVn" transform="translate(9.567 0)" width="16.68623545100487px"/><path d="M 3.509 4.07 C 2.88 4.589 2.207 4.836 1.505 4.993 C 1.083 5.088 0.655 5.106 0.225 5.09 C 0.099 5.085 0.032 5.017 0.006 4.877 C 0.003 4.857 0 4.837 0 4.817 C 0 4.252 0.001 3.686 0.004 3.122 C 0.004 2.893 0.011 2.664 0.013 2.436 C 0.016 2.148 0.062 2.078 0.31 2.039 C 0.554 1.999 0.801 1.978 1.045 1.941 C 1.656 1.848 2.237 1.648 2.767 1.276 C 3.031 1.09 3.248 0.848 3.419 0.551 C 3.48 0.444 3.547 0.342 3.611 0.237 C 3.697 0.095 3.819 0.024 3.967 0.008 C 4.019 0.002 4.073 0 4.125 0 C 5.042 0 5.96 0 6.878 0.001 C 6.953 0.001 7.031 0.007 7.105 0.025 C 7.244 0.058 7.29 0.123 7.297 0.289 C 7.306 0.503 7.316 0.717 7.316 0.932 C 7.318 3.012 7.321 5.091 7.317 7.17 C 7.313 9.463 7.303 11.757 7.296 14.051 C 7.296 14.071 7.296 14.091 7.296 14.111 C 7.295 14.528 7.198 14.685 6.783 14.691 C 5.872 14.704 4.96 14.695 4.049 14.695 C 4.031 14.695 4.014 14.695 3.996 14.695 C 3.663 14.671 3.561 14.561 3.529 14.18 C 3.518 14.04 3.511 13.898 3.51 13.758 C 3.509 10.615 3.509 7.473 3.509 4.33 C 3.509 4.259 3.509 4.187 3.509 4.073 Z" fill="rgb(255, 255, 255)" height="14.697751864174034px" id="dM1aakF7Z" transform="translate(0 0.002)" width="7.318787625793529px"/></g></g></svg>