<svg display="block" role="presentation" viewBox="0 0 42 42" xmlns="http://www.w3.org/2000/svg"><defs ><linearGradient id="GneQPuHlU-440103015-linear-gradient" x1="0.49751243781094523" x2="0.5024875621890548" y1="0" y2="1"><stop offset="0" stop-color="rgb(214, 85, 93)"/><stop offset="1" stop-color="rgb(172, 10, 21)"/></linearGradient><linearGradient id="QUQP6Iz1j-440103015-linear-gradient" x1="0.49751243781094523" x2="0.5024875621890548" y1="0" y2="1"><stop offset="0" stop-color="rgb(214, 85, 93)"/><stop offset="1" stop-color="rgb(172, 10, 21)"/></linearGradient></defs><g d="M 3.375 3.897 C 3.622 3.94 3.867 3.987 4.098 4.095 C 4.54 4.302 4.987 4.499 5.432 4.699 C 5.467 4.715 5.498 4.737 5.54 4.734 C 5.583 4.759 5.627 4.785 5.673 4.805 C 6.535 5.195 7.398 5.582 8.258 5.972 C 8.342 6.01 8.403 6.007 8.482 5.965 C 9.422 5.457 10.367 4.957 11.305 4.447 C 12.435 3.843 13.548 3.208 14.642 2.542 C 14.905 2.38 15.163 2.214 15.407 2.02 C 15.468 1.97 15.483 1.925 15.463 1.847 C 15.391 1.611 15.275 1.391 15.123 1.197 C 15.075 1.127 15.02 1.044 14.947 1.024 C 14.88 1.004 14.797 1.055 14.722 1.087 L 13.488 1.615 C 13.442 1.637 13.394 1.653 13.345 1.664 C 12.625 1.804 11.903 1.945 11.175 2.037 C 10.908 2.081 10.636 2.088 10.367 2.057 C 9.955 1.987 9.552 1.876 9.162 1.727 C 8.257 1.386 7.372 0.994 6.512 0.554 C 6.151 0.37 5.784 0.199 5.412 0.039 C 5.282 -0.024 5.127 -0.01 5.012 0.077 C 4.821 0.203 4.635 0.336 4.453 0.475 C 3.753 1.023 3.067 1.589 2.397 2.174 C 2.02 2.497 1.643 2.817 1.277 3.15 C 1.14 3.26 1.008 3.377 0.883 3.5 C 0.577 3.755 0.307 4.05 0 4.315 C 0.228 4.537 0.445 4.745 0.658 4.955 C 0.695 4.992 0.725 4.995 0.768 4.969 C 1.01 4.814 1.242 4.645 1.452 4.445 C 1.492 4.432 1.522 4.4 1.555 4.377 C 1.957 4.092 2.398 3.91 2.893 3.877 C 3.053 3.887 3.215 3.877 3.375 3.897 Z M 29.985 21.64 C 30.01 21.54 29.997 21.442 29.993 21.342 C 29.982 21.189 29.977 21.034 29.957 20.879 C 29.942 20.752 29.942 20.622 29.907 20.495 C 29.897 20.45 29.89 20.404 29.882 20.359 C 29.712 19.533 29.375 18.75 28.89 18.06 C 28.379 17.335 27.767 16.687 27.073 16.134 C 26.198 15.431 25.255 14.819 24.257 14.305 C 24.015 14.179 23.77 14.055 23.528 13.934 C 23.533 13.894 23.562 13.88 23.583 13.862 C 24.055 13.46 24.517 13.047 24.957 12.612 C 25.554 12.04 26.088 11.405 26.55 10.719 C 27.075 9.922 27.409 9.015 27.528 8.069 C 27.591 7.588 27.601 7.102 27.558 6.619 C 27.555 6.576 27.548 6.533 27.535 6.492 C 27.545 6.425 27.523 6.359 27.51 6.292 C 27.416 5.769 27.23 5.267 26.96 4.809 L 26.943 4.77 L 26.947 4.762 L 26.938 4.762 C 26.842 4.6 26.748 4.439 26.63 4.292 C 26.585 4.205 26.523 4.132 26.463 4.057 C 26.305 3.862 26.152 3.66 25.963 3.492 C 25.905 3.409 25.827 3.342 25.755 3.272 C 25.494 3.01 25.217 2.765 24.925 2.539 L 24.9 2.53 C 24.885 2.494 24.855 2.474 24.82 2.459 C 24.788 2.43 24.76 2.399 24.718 2.384 C 24.692 2.36 24.668 2.337 24.64 2.317 C 24.302 2.063 23.952 1.827 23.59 1.609 C 22.875 1.166 22.092 0.842 21.273 0.649 C 20.843 0.548 20.402 0.497 19.96 0.495 C 19.938 0.495 19.917 0.494 19.9 0.512 C 19.75 0.567 19.617 0.662 19.483 0.747 C 18.64 1.289 17.813 1.855 16.992 2.43 C 15.935 3.165 14.843 3.842 13.722 4.469 C 12.487 5.159 11.222 5.792 9.953 6.415 L 8.785 6.992 L 8.737 7.009 L 7.047 7.834 C 7.022 7.845 6.99 7.85 6.98 7.887 C 7.16 7.97 7.323 8.079 7.477 8.205 C 7.763 8.465 8.001 8.773 8.182 9.115 C 8.362 9.444 8.5 9.789 8.62 10.144 C 8.646 10.22 8.659 10.3 8.658 10.38 L 8.658 14.297 C 8.658 14.332 8.645 14.352 8.608 14.352 L 8.517 14.352 C 8.145 14.355 7.773 14.349 7.402 14.374 C 7.217 14.387 7.032 14.407 6.85 14.442 C 6.367 14.539 5.973 14.795 5.653 15.162 C 5.097 15.794 4.74 16.576 4.627 17.41 C 4.61 17.514 4.575 17.629 4.732 17.68 C 4.773 17.635 4.82 17.58 4.868 17.53 C 5.107 17.267 5.375 17.039 5.697 16.889 C 6.402 16.562 7.102 16.625 7.785 16.955 C 7.998 17.065 8.177 17.231 8.302 17.435 C 8.343 17.494 8.371 17.561 8.385 17.632 C 8.407 17.762 8.442 17.89 8.465 18.019 C 8.582 18.615 8.662 19.215 8.658 19.827 C 8.652 20.818 8.652 21.808 8.658 22.799 C 8.663 23.074 8.628 23.349 8.557 23.615 C 8.387 24.232 8.182 24.832 7.857 25.385 C 7.768 25.535 7.665 25.675 7.565 25.819 C 7.45 25.93 7.333 26.042 7.22 26.155 C 6.62 26.754 6.01 27.342 5.387 27.915 C 4.692 28.569 3.965 29.188 3.208 29.769 C 3.195 29.779 3.18 29.787 3.168 29.799 C 3.135 29.832 3.142 29.87 3.187 29.889 C 3.21 29.897 3.237 29.899 3.26 29.905 C 3.502 29.967 3.743 30.025 3.983 30.094 C 5.186 30.447 6.377 30.837 7.555 31.264 C 9.463 31.937 11.358 32.654 13.257 33.357 C 13.847 33.574 14.435 33.794 15.038 33.974 C 15.188 34.019 15.318 34.004 15.453 33.939 C 15.586 33.873 15.711 33.793 15.827 33.7 C 16.46 33.199 17.121 32.732 17.805 32.302 L 17.813 32.302 L 17.812 32.294 C 17.842 32.277 17.873 32.264 17.902 32.247 C 18.382 31.964 18.883 31.725 19.423 31.577 C 19.62 31.524 19.817 31.464 20.007 31.382 C 20.045 31.382 20.08 31.365 20.117 31.354 C 21.33 30.948 22.508 30.445 23.64 29.849 C 24.873 29.192 26.023 28.419 27.062 27.477 C 27.772 26.845 28.387 26.113 28.888 25.305 C 29.103 24.955 29.297 24.592 29.442 24.205 C 29.465 24.192 29.465 24.169 29.468 24.147 C 29.492 24.089 29.518 24.03 29.537 23.972 C 29.59 23.814 29.658 23.659 29.687 23.494 C 29.698 23.469 29.717 23.444 29.712 23.415 C 29.745 23.332 29.767 23.246 29.78 23.157 C 29.889 22.749 29.951 22.329 29.967 21.907 C 29.967 21.817 29.993 21.729 29.983 21.639 Z M 12.85 9.012 C 12.912 8.85 13.088 8.702 13.355 8.737 C 13.642 8.764 13.97 8.797 14.298 8.824 C 14.787 8.864 15.277 8.887 15.765 8.819 C 16.345 8.737 16.82 8.477 17.198 8.029 C 17.44 7.733 17.647 7.411 17.815 7.069 C 18.155 6.407 18.425 5.715 18.682 5.019 C 18.89 4.449 19.092 3.875 19.293 3.304 C 19.353 3.137 19.45 3.012 19.628 2.97 C 19.767 2.937 19.914 2.974 20.02 3.069 C 20.127 3.165 20.179 3.307 20.16 3.449 C 20.132 3.659 20.085 3.865 20.043 4.074 C 19.854 4.993 19.699 5.919 19.578 6.85 C 19.51 7.343 19.491 7.842 19.52 8.339 C 19.557 8.819 19.672 9.269 19.973 9.655 C 20.135 9.862 20.325 10.034 20.535 10.187 C 20.91 10.46 21.315 10.679 21.728 10.882 C 21.993 11.014 22.262 11.14 22.528 11.265 C 22.665 11.32 22.766 11.439 22.798 11.582 C 22.83 11.717 22.796 11.858 22.706 11.964 C 22.617 12.07 22.483 12.127 22.345 12.119 C 21.978 12.09 21.613 12.045 21.248 12.019 C 20.745 11.979 20.243 11.959 19.743 12.05 C 19.22 12.147 18.788 12.4 18.443 12.807 C 18.175 13.136 17.947 13.496 17.765 13.88 C 17.465 14.485 17.218 15.114 16.982 15.745 C 16.759 16.337 16.547 16.932 16.343 17.53 C 16.285 17.702 16.19 17.832 16.007 17.879 C 15.862 17.914 15.709 17.874 15.601 17.771 C 15.493 17.669 15.444 17.518 15.472 17.372 L 15.675 16.322 C 15.825 15.529 15.967 14.734 16.058 13.932 C 16.112 13.47 16.142 13.009 16.112 12.544 C 16.078 12.024 15.948 11.539 15.605 11.13 C 15.387 10.882 15.132 10.667 14.85 10.494 C 14.445 10.241 14.024 10.013 13.59 9.812 C 13.418 9.729 13.245 9.655 13.073 9.57 C 12.862 9.473 12.764 9.228 12.848 9.012 Z M 23.19 23.69 C 22.983 23.677 22.777 23.65 22.572 23.634 C 22.114 23.584 21.653 23.564 21.192 23.574 C 20.909 23.58 20.627 23.622 20.355 23.7 C 19.917 23.834 19.563 24.094 19.277 24.45 C 18.986 24.826 18.742 25.237 18.552 25.672 C 18.223 26.38 17.952 27.112 17.692 27.849 C 17.537 28.289 17.383 28.73 17.232 29.172 C 17.178 29.327 17.085 29.439 16.927 29.487 C 16.786 29.53 16.634 29.499 16.521 29.404 C 16.409 29.31 16.352 29.165 16.37 29.019 C 16.387 28.855 16.425 28.692 16.457 28.53 C 16.613 27.714 16.76 26.894 16.873 26.069 C 16.937 25.614 16.983 25.157 16.993 24.699 C 17.005 24.371 16.982 24.043 16.923 23.72 C 16.819 23.181 16.516 22.7 16.073 22.374 C 15.745 22.128 15.394 21.913 15.027 21.73 C 14.677 21.549 14.322 21.384 13.963 21.222 C 13.835 21.173 13.734 21.069 13.688 20.939 C 13.642 20.797 13.669 20.641 13.763 20.524 C 13.856 20.408 14.001 20.346 14.15 20.36 C 14.44 20.385 14.73 20.415 15.02 20.439 C 15.497 20.477 15.973 20.502 16.452 20.455 C 17.105 20.39 17.648 20.122 18.065 19.602 C 18.352 19.228 18.593 18.822 18.783 18.39 C 19.147 17.612 19.433 16.805 19.722 15.999 C 19.853 15.63 19.978 15.26 20.105 14.892 C 20.162 14.722 20.262 14.6 20.438 14.559 C 20.575 14.525 20.72 14.561 20.826 14.654 C 20.932 14.746 20.987 14.885 20.972 15.025 C 20.96 15.152 20.928 15.277 20.905 15.402 C 20.758 16.185 20.61 16.97 20.498 17.762 C 20.447 18.066 20.409 18.372 20.383 18.679 C 20.37 18.825 20.345 18.974 20.358 19.122 C 20.325 19.544 20.342 19.962 20.427 20.377 C 20.522 20.839 20.75 21.222 21.097 21.535 C 21.35 21.764 21.635 21.945 21.93 22.114 C 22.397 22.38 22.885 22.604 23.372 22.827 C 23.51 22.89 23.615 22.982 23.655 23.134 C 23.694 23.274 23.662 23.424 23.569 23.535 C 23.475 23.647 23.333 23.705 23.188 23.69 Z" fill="transparent" height="33.999652853175995px" id="txN5xXsxC" transform="translate(6 4.2)" width="30px"><path d="M 3.375 3.897 C 3.622 3.94 3.867 3.987 4.098 4.095 C 4.54 4.302 4.987 4.499 5.432 4.699 C 5.467 4.715 5.498 4.737 5.54 4.734 C 5.583 4.759 5.627 4.785 5.673 4.805 C 6.535 5.195 7.398 5.582 8.258 5.972 C 8.342 6.01 8.403 6.007 8.482 5.965 C 9.422 5.457 10.367 4.957 11.305 4.447 C 12.435 3.843 13.548 3.208 14.642 2.542 C 14.905 2.38 15.163 2.214 15.407 2.02 C 15.468 1.97 15.483 1.925 15.463 1.847 C 15.391 1.611 15.275 1.391 15.123 1.197 C 15.075 1.127 15.02 1.044 14.947 1.024 C 14.88 1.004 14.797 1.055 14.722 1.087 L 13.488 1.615 C 13.442 1.637 13.394 1.653 13.345 1.664 C 12.625 1.804 11.903 1.945 11.175 2.037 C 10.908 2.081 10.636 2.088 10.367 2.057 C 9.955 1.987 9.552 1.876 9.162 1.727 C 8.257 1.386 7.372 0.994 6.512 0.554 C 6.151 0.37 5.784 0.199 5.412 0.039 C 5.282 -0.024 5.127 -0.01 5.012 0.077 C 4.821 0.203 4.635 0.336 4.453 0.475 C 3.753 1.023 3.067 1.589 2.397 2.174 C 2.02 2.497 1.643 2.817 1.277 3.15 C 1.14 3.26 1.008 3.377 0.883 3.5 C 0.577 3.755 0.307 4.05 0 4.315 C 0.228 4.537 0.445 4.745 0.658 4.955 C 0.695 4.992 0.725 4.995 0.768 4.969 C 1.01 4.814 1.242 4.645 1.452 4.445 C 1.492 4.432 1.522 4.4 1.555 4.377 C 1.957 4.092 2.398 3.91 2.893 3.877 C 3.053 3.887 3.215 3.877 3.375 3.897 Z" fill="url(#GneQPuHlU-440103015-linear-gradient)" height="5.998782907497231px" id="GneQPuHlU" width="15.471717169082277px"/><path d="M 26.838 21.145 C 26.863 21.045 26.849 20.947 26.846 20.847 C 26.834 20.693 26.829 20.538 26.809 20.383 C 26.794 20.257 26.794 20.127 26.759 20 C 26.749 19.955 26.743 19.908 26.734 19.863 C 26.565 19.037 26.227 18.255 25.743 17.565 C 25.232 16.84 24.62 16.191 23.926 15.638 C 23.051 14.936 22.107 14.324 21.109 13.81 C 20.868 13.683 20.623 13.56 20.381 13.438 C 20.386 13.398 20.414 13.385 20.436 13.367 C 20.908 12.965 21.369 12.552 21.809 12.117 C 22.407 11.545 22.941 10.91 23.403 10.223 C 23.927 9.427 24.262 8.52 24.381 7.573 C 24.444 7.093 24.454 6.606 24.411 6.123 C 24.408 6.08 24.4 6.038 24.388 5.997 C 24.398 5.93 24.376 5.863 24.363 5.797 C 24.269 5.274 24.082 4.771 23.813 4.313 L 23.796 4.275 L 23.799 4.267 L 23.791 4.267 C 23.694 4.105 23.601 3.943 23.483 3.797 C 23.438 3.71 23.376 3.637 23.316 3.562 C 23.158 3.367 23.004 3.165 22.816 2.997 C 22.758 2.913 22.679 2.847 22.608 2.777 C 22.347 2.515 22.07 2.27 21.778 2.043 L 21.753 2.035 C 21.738 1.998 21.708 1.978 21.673 1.963 C 21.641 1.935 21.613 1.903 21.571 1.888 C 21.544 1.865 21.521 1.842 21.493 1.822 C 21.155 1.568 20.804 1.332 20.443 1.113 C 19.727 0.671 18.945 0.347 18.126 0.153 C 17.695 0.053 17.255 0.001 16.813 0 C 16.791 0 16.769 -0.002 16.753 0.017 C 16.603 0.072 16.469 0.167 16.336 0.252 C 15.493 0.793 14.666 1.36 13.844 1.935 C 12.788 2.67 11.696 3.347 10.574 3.973 C 9.339 4.663 8.074 5.297 6.806 5.92 L 5.638 6.497 L 5.589 6.513 L 3.899 7.338 C 3.874 7.35 3.843 7.355 3.833 7.392 C 4.013 7.475 4.176 7.583 4.329 7.71 C 4.615 7.97 4.854 8.278 5.034 8.62 C 5.214 8.948 5.353 9.293 5.473 9.648 C 5.498 9.725 5.511 9.805 5.511 9.885 L 5.511 13.802 C 5.511 13.837 5.498 13.857 5.461 13.857 L 5.369 13.857 C 4.998 13.86 4.626 13.853 4.254 13.878 C 4.069 13.892 3.884 13.912 3.703 13.947 C 3.219 14.043 2.826 14.3 2.506 14.667 C 1.949 15.299 1.592 16.081 1.479 16.915 C 1.463 17.018 1.428 17.133 1.584 17.185 C 1.626 17.14 1.673 17.085 1.721 17.035 C 1.959 16.772 2.228 16.543 2.549 16.393 C 3.254 16.067 3.954 16.13 4.638 16.46 C 4.851 16.569 5.03 16.736 5.154 16.94 C 5.195 16.999 5.224 17.066 5.238 17.137 C 5.259 17.267 5.294 17.395 5.318 17.523 C 5.434 18.12 5.514 18.72 5.511 19.332 C 5.504 20.322 5.504 21.313 5.511 22.303 C 5.515 22.579 5.481 22.854 5.409 23.12 C 5.239 23.737 5.034 24.337 4.709 24.89 C 4.621 25.04 4.518 25.18 4.418 25.323 C 4.303 25.435 4.186 25.547 4.073 25.66 C 3.473 26.258 2.863 26.847 2.239 27.42 C 1.545 28.074 0.818 28.693 0.061 29.273 C 0.048 29.283 0.033 29.292 0.021 29.303 C -0.012 29.337 -0.006 29.375 0.039 29.393 C 0.063 29.402 0.089 29.403 0.113 29.41 C 0.354 29.472 0.596 29.53 0.836 29.599 C 2.038 29.951 3.23 30.342 4.408 30.769 C 6.316 31.442 8.211 32.159 10.109 32.862 C 10.699 33.079 11.288 33.299 11.891 33.479 C 12.041 33.524 12.171 33.509 12.306 33.444 C 12.439 33.377 12.564 33.298 12.679 33.205 C 13.313 32.704 13.973 32.237 14.658 31.807 L 14.666 31.807 L 14.664 31.799 C 14.694 31.782 14.726 31.769 14.754 31.752 C 15.234 31.469 15.736 31.23 16.276 31.082 C 16.473 31.029 16.669 30.969 16.859 30.887 C 16.898 30.887 16.933 30.87 16.969 30.859 C 18.182 30.453 19.361 29.949 20.493 29.353 C 21.726 28.697 22.876 27.923 23.914 26.982 C 24.624 26.349 25.239 25.618 25.741 24.81 C 25.956 24.46 26.149 24.097 26.294 23.71 C 26.318 23.697 26.318 23.673 26.321 23.652 C 26.344 23.593 26.371 23.535 26.389 23.477 C 26.443 23.318 26.511 23.163 26.539 22.998 C 26.551 22.973 26.569 22.948 26.564 22.92 C 26.597 22.837 26.62 22.75 26.633 22.662 C 26.741 22.253 26.804 21.834 26.819 21.412 C 26.819 21.322 26.846 21.233 26.836 21.143 Z M 9.703 8.517 C 9.764 8.355 9.941 8.207 10.208 8.242 C 10.494 8.268 10.823 8.302 11.151 8.328 C 11.639 8.368 12.129 8.392 12.618 8.323 C 13.198 8.242 13.673 7.982 14.051 7.533 C 14.292 7.238 14.499 6.916 14.668 6.573 C 15.008 5.912 15.278 5.22 15.534 4.523 C 15.743 3.953 15.944 3.38 16.146 2.808 C 16.206 2.642 16.303 2.517 16.481 2.475 C 16.62 2.441 16.767 2.478 16.873 2.574 C 16.979 2.67 17.032 2.812 17.013 2.953 C 16.984 3.163 16.938 3.37 16.896 3.578 C 16.706 4.498 16.551 5.424 16.431 6.355 C 16.363 6.848 16.343 7.347 16.373 7.843 C 16.409 8.323 16.524 8.773 16.826 9.16 C 16.988 9.367 17.178 9.538 17.388 9.692 C 17.763 9.965 18.168 10.183 18.581 10.387 C 18.846 10.518 19.114 10.645 19.381 10.77 C 19.517 10.825 19.618 10.943 19.651 11.087 C 19.682 11.221 19.648 11.363 19.559 11.469 C 19.47 11.574 19.336 11.632 19.198 11.623 C 18.831 11.595 18.466 11.55 18.101 11.523 C 17.598 11.483 17.096 11.463 16.596 11.555 C 16.073 11.652 15.641 11.905 15.296 12.312 C 15.027 12.641 14.799 13.001 14.618 13.385 C 14.318 13.99 14.071 14.618 13.834 15.25 C 13.612 15.842 13.399 16.437 13.196 17.035 C 13.138 17.207 13.043 17.337 12.859 17.383 C 12.715 17.419 12.562 17.378 12.454 17.276 C 12.346 17.174 12.297 17.023 12.324 16.877 L 12.528 15.827 C 12.678 15.033 12.819 14.238 12.911 13.437 C 12.964 12.975 12.994 12.513 12.964 12.048 C 12.931 11.528 12.801 11.043 12.458 10.635 C 12.239 10.386 11.985 10.172 11.703 9.998 C 11.297 9.745 10.876 9.518 10.443 9.317 C 10.271 9.233 10.098 9.16 9.926 9.075 C 9.715 8.978 9.616 8.733 9.701 8.517 Z M 20.043 23.195 C 19.836 23.182 19.629 23.155 19.424 23.138 C 18.966 23.089 18.505 23.069 18.044 23.078 C 17.761 23.084 17.48 23.127 17.208 23.205 C 16.769 23.338 16.416 23.598 16.129 23.955 C 15.838 24.331 15.595 24.741 15.404 25.177 C 15.076 25.885 14.804 26.617 14.544 27.353 C 14.389 27.794 14.236 28.235 14.084 28.677 C 14.031 28.832 13.938 28.943 13.779 28.992 C 13.639 29.035 13.486 29.004 13.374 28.909 C 13.261 28.814 13.204 28.669 13.223 28.523 C 13.239 28.36 13.278 28.197 13.309 28.035 C 13.466 27.218 13.613 26.398 13.726 25.573 C 13.789 25.118 13.836 24.662 13.846 24.203 C 13.858 23.876 13.834 23.548 13.776 23.225 C 13.672 22.685 13.368 22.205 12.926 21.878 C 12.597 21.633 12.247 21.418 11.879 21.235 C 11.529 21.053 11.174 20.888 10.816 20.727 C 10.687 20.677 10.587 20.574 10.541 20.443 C 10.494 20.302 10.522 20.146 10.615 20.029 C 10.708 19.913 10.854 19.851 11.003 19.865 C 11.293 19.89 11.583 19.92 11.873 19.943 C 12.349 19.982 12.826 20.007 13.304 19.96 C 13.958 19.895 14.501 19.627 14.918 19.107 C 15.205 18.733 15.446 18.326 15.636 17.895 C 15.999 17.117 16.286 16.31 16.574 15.503 C 16.706 15.135 16.831 14.765 16.958 14.397 C 17.014 14.227 17.114 14.105 17.291 14.063 C 17.428 14.03 17.573 14.066 17.679 14.158 C 17.785 14.251 17.839 14.39 17.824 14.53 C 17.813 14.657 17.781 14.782 17.758 14.907 C 17.611 15.69 17.463 16.475 17.351 17.267 C 17.3 17.571 17.261 17.876 17.236 18.183 C 17.223 18.33 17.198 18.478 17.211 18.627 C 17.178 19.048 17.194 19.467 17.279 19.882 C 17.374 20.343 17.603 20.727 17.949 21.04 C 18.203 21.268 18.488 21.45 18.783 21.618 C 19.249 21.885 19.738 22.108 20.224 22.332 C 20.363 22.395 20.468 22.487 20.508 22.638 C 20.547 22.778 20.515 22.929 20.421 23.04 C 20.328 23.151 20.186 23.209 20.041 23.195 Z" fill="url(#QUQP6Iz1j-440103015-linear-gradient)" height="33.504383554622535px" id="QUQP6Iz1j" transform="translate(3.147 0.495)" width="26.852608652518068px"/></g></svg>