<svg display="block" role="presentation" viewBox="0 0 42 42" xmlns="http://www.w3.org/2000/svg"><defs ><linearGradient id="nBc7xL6Fs-3714084610-linear-gradient" x1="0.49751243781094523" x2="0.5024875621890548" y1="0" y2="1"><stop offset="0" stop-color="rgb(153, 183, 156)"/><stop offset="1" stop-color="rgb(79, 102, 79)"/></linearGradient><linearGradient id="rezQKalaf-3714084610-linear-gradient" x1="0.49751243781094523" x2="0.5024875621890548" y1="0" y2="1"><stop offset="0" stop-color="rgb(153, 183, 156)"/><stop offset="1" stop-color="rgb(79, 102, 79)"/></linearGradient><linearGradient id="uWKcGhSRJ-3714084610-linear-gradient" x1="0.49751243781094523" x2="0.5024875621890548" y1="0" y2="1"><stop offset="0" stop-color="rgb(153, 183, 156)"/><stop offset="1" stop-color="rgb(79, 102, 79)"/></linearGradient><linearGradient id="U0ldq4HaC-3714084610-linear-gradient" x1="0.49751243781094523" x2="0.5024875621890548" y1="0" y2="1"><stop offset="0" stop-color="rgb(153, 183, 156)"/><stop offset="1" stop-color="rgb(79, 102, 79)"/></linearGradient><linearGradient id="EYgxzN3nA-3714084610-linear-gradient" x1="0.49751243781094523" x2="0.5024875621890548" y1="0" y2="1"><stop offset="0" stop-color="rgb(153, 183, 156)"/><stop offset="1" stop-color="rgb(79, 102, 79)"/></linearGradient><linearGradient id="IBKm7i_rb-3714084610-linear-gradient" x1="0.49751243781094523" x2="0.5024875621890548" y1="0" y2="1"><stop offset="0" stop-color="rgb(153, 183, 156)"/><stop offset="1" stop-color="rgb(79, 102, 79)"/></linearGradient></defs><g d="M 7.341 20.423 C 6.286 20.492 5.366 20.194 4.72 19.334 C 3.635 17.879 4.361 15.728 6.099 15.243 C 7.28 14.914 8.468 15.289 9.335 16.118 C 9.346 16.163 8.922 16.523 8.854 16.576 C 8.464 16.202 7.96 15.888 7.425 15.785 C 5.511 15.422 4.025 17.531 5.358 19.078 C 6.374 20.262 8.575 20.094 8.911 18.417 L 7.352 18.417 L 7.352 17.825 L 9.595 17.825 C 9.633 19.2 8.754 20.335 7.341 20.423 Z M 16.131 26.157 L 19.413 26.157 L 16.719 31.341 L 16.719 31.345 L 16.666 31.353 L 16.204 31.085 L 18.469 26.749 L 16.131 26.749 Z M 17.759 6.976 C 18.729 6.968 19.478 6.468 19.39 5.417 C 19.306 4.405 18.423 4.233 17.587 4.198 C 17.121 4.179 16.647 4.214 16.181 4.198 L 16.181 9.253 L 16.796 9.253 L 16.796 6.964 C 16.868 6.972 16.956 6.941 17.01 6.999 C 17.575 7.755 18.183 8.492 18.733 9.253 L 19.512 9.253 L 17.766 6.972 Z M 16.792 6.376 L 16.792 4.817 L 17.938 4.817 C 18.274 4.817 18.694 5.069 18.744 5.425 C 18.912 6.571 17.51 6.353 16.792 6.372 Z M 18.779 17.772 L 28.917 27.914 C 28.696 28.113 28.49 28.369 28.268 28.564 L 28.268 28.556 C 28.226 28.587 28.115 28.694 28.077 28.675 L 17.919 18.605 L 7.78 28.77 L 7.001 27.991 L 6.989 27.933 L 17.105 17.768 L 6.928 7.644 L 6.905 7.595 L 6.928 7.545 L 7.708 6.811 L 7.742 6.8 L 7.792 6.823 L 17.942 16.927 L 28.073 6.727 C 28.153 6.708 28.287 6.918 28.337 6.976 C 28.52 7.163 28.711 7.342 28.894 7.53 L 28.894 7.579 L 18.782 17.764 Z M 28.875 19.151 L 30.491 15.327 L 31.145 15.327 L 28.914 20.499 C 28.852 20.492 28.768 20.522 28.738 20.457 L 26.61 15.327 L 27.271 15.327 Z M 35.698 18.322 L 35.698 17.447 C 35.66 17.424 35.675 17.359 35.675 17.317 C 35.565 8.687 28.81 1.287 20.314 0.145 L 18.821 0 L 16.979 0 C 7.906 0.367 0.35 7.919 0.006 17 C -0.013 17.516 0.021 18.039 0.006 18.559 L 0.151 20.175 C 1.095 28.541 8.724 35.589 17.182 35.677 C 17.224 35.677 17.289 35.662 17.312 35.7 L 18.282 35.7 C 18.305 35.662 18.37 35.677 18.412 35.677 C 27.588 35.563 35.58 27.651 35.679 18.452 C 35.679 18.41 35.664 18.345 35.702 18.322 Z M 17.877 34.39 C 8.705 34.39 1.274 26.956 1.274 17.783 C 1.274 8.611 8.708 1.177 17.877 1.177 C 27.046 1.177 34.48 8.611 34.48 17.783 C 34.48 26.956 27.049 34.39 17.877 34.39 Z" fill="transparent" height="35.69991249999998px" id="SoKAkCVEC" transform="translate(3.151 3.15)" width="35.70213606835372px"><path d="M 3.132 5.299 C 2.078 5.368 1.157 5.07 0.511 4.21 C -0.573 2.754 0.152 0.604 1.891 0.119 C 3.071 -0.21 4.259 0.164 5.126 0.993 C 5.138 1.039 4.714 1.398 4.645 1.452 C 4.255 1.077 3.751 0.764 3.216 0.661 C 1.302 0.298 -0.184 2.407 1.149 3.954 C 2.166 5.138 4.366 4.97 4.702 3.293 L 3.144 3.293 L 3.144 2.701 L 5.386 2.701 C 5.424 4.076 4.546 5.211 3.132 5.299 Z" fill="url(#nBc7xL6Fs-3714084610-linear-gradient)" height="5.308287855665087px" id="nBc7xL6Fs" transform="translate(4.209 15.124)" width="5.387262973583855px"/><path d="M 0 0 L 3.281 0 L 0.588 5.184 L 0.588 5.188 L 0.535 5.195 L 0.072 4.928 L 2.338 0.592 L 0 0.592 Z" fill="url(#rezQKalaf-3714084610-linear-gradient)" height="5.195400000000028px" id="rezQKalaf" transform="translate(16.131 26.157)" width="3.281424999999956px"/><path d="M 1.578 2.783 C 2.548 2.776 3.297 2.275 3.209 1.225 C 3.125 0.212 2.243 0.04 1.406 0.006 C 0.94 -0.013 0.466 0.021 0 0.006 L 0 5.06 L 0.615 5.06 L 0.615 2.772 C 0.688 2.779 0.776 2.749 0.829 2.806 C 1.394 3.563 2.002 4.3 2.552 5.06 L 3.331 5.06 L 1.586 2.779 Z M 0.611 2.183 L 0.611 0.625 L 1.757 0.625 C 2.094 0.625 2.514 0.877 2.563 1.232 C 2.732 2.378 1.329 2.161 0.611 2.18 Z" fill="url(#uWKcGhSRJ-3714084610-linear-gradient)" height="5.060108568353684px" id="uWKcGhSRJ" transform="translate(16.181 4.192)" width="3.3312999999999704px"/><path d="M 11.873 11.045 L 22.012 21.188 C 21.791 21.387 21.584 21.643 21.363 21.838 L 21.363 21.83 C 21.321 21.86 21.21 21.968 21.172 21.948 L 11.014 11.878 L 0.875 22.044 L 0.096 21.265 L 0.084 21.207 L 10.2 11.042 L 0.023 0.918 L 0 0.868 L 0.023 0.819 L 0.802 0.085 L 0.837 0.074 L 0.886 0.097 L 11.037 10.201 L 21.168 0.001 C 21.248 -0.018 21.382 0.192 21.431 0.25 C 21.615 0.437 21.806 0.616 21.989 0.803 L 21.989 0.853 L 11.877 11.038 Z" fill="url(#U0ldq4HaC-3714084610-linear-gradient)" height="22.04389155075246px" id="U0ldq4HaC" transform="translate(6.905 6.726)" width="22.0121125px"/><path d="M 2.265 3.824 L 3.881 0 L 4.535 0 L 2.304 5.172 C 2.242 5.165 2.158 5.195 2.128 5.13 L 0 0 L 0.661 0 Z" fill="url(#EYgxzN3nA-3714084610-linear-gradient)" height="5.173238804483711px" id="EYgxzN3nA" transform="translate(26.61 15.327)" width="4.534600000000026px"/><path d="M 35.698 18.322 L 35.698 17.447 C 35.66 17.424 35.675 17.359 35.675 17.317 C 35.565 8.687 28.81 1.287 20.314 0.145 L 18.821 0 L 16.979 0 C 7.906 0.367 0.35 7.919 0.006 17 C -0.013 17.516 0.021 18.039 0.006 18.559 L 0.151 20.175 C 1.095 28.541 8.724 35.589 17.182 35.677 C 17.224 35.677 17.289 35.662 17.312 35.7 L 18.282 35.7 C 18.305 35.662 18.37 35.677 18.412 35.677 C 27.588 35.563 35.58 27.651 35.679 18.452 C 35.679 18.41 35.664 18.345 35.702 18.322 Z M 17.877 34.39 C 8.705 34.39 1.274 26.956 1.274 17.783 C 1.274 8.611 8.708 1.177 17.877 1.177 C 27.046 1.177 34.48 8.611 34.48 17.783 C 34.48 26.956 27.049 34.39 17.877 34.39 Z" fill="url(#IBKm7i_rb-3714084610-linear-gradient)" height="35.69991249999998px" id="IBKm7i_rb" transform="translate(0 0)" width="35.70213606835372px"/></g></svg>