<svg display="block" role="presentation" viewBox="0 0 42 42" xmlns="http://www.w3.org/2000/svg"><defs ><linearGradient id="IkSJqScHe-4011442835-linear-gradient" x1="0.49751243781094523" x2="0.5024875621890548" y1="0" y2="1"><stop offset="0" stop-color="rgb(243, 156, 64)"/><stop offset="1" stop-color="rgb(240, 105, 43)"/></linearGradient><linearGradient id="zJPrPLdIS-4011442835-linear-gradient" x1="0.49751243781094523" x2="0.5024875621890548" y1="0" y2="1"><stop offset="0" stop-color="rgb(243, 156, 64)"/><stop offset="1" stop-color="rgb(240, 105, 43)"/></linearGradient><linearGradient id="JxWLPhSvp-4011442835-linear-gradient" x1="0.49751243781094523" x2="0.5024875621890548" y1="0" y2="1"><stop offset="0" stop-color="rgb(243, 156, 64)"/><stop offset="1" stop-color="rgb(240, 105, 43)"/></linearGradient><linearGradient id="lcRpmLzlR-4011442835-linear-gradient" x1="0.49751243781094523" x2="0.5024875621890548" y1="0" y2="1"><stop offset="0" stop-color="rgb(243, 156, 64)"/><stop offset="1" stop-color="rgb(240, 105, 43)"/></linearGradient><linearGradient id="BogR2A1Gs-4011442835-linear-gradient" x1="0.49751243781094523" x2="0.5024875621890548" y1="0" y2="1"><stop offset="0" stop-color="rgb(243, 156, 64)"/><stop offset="1" stop-color="rgb(240, 105, 43)"/></linearGradient><linearGradient id="gNyNMkGak-4011442835-linear-gradient" x1="0.49751243781094523" x2="0.5024875621890548" y1="0" y2="1"><stop offset="0" stop-color="rgb(243, 156, 64)"/><stop offset="1" stop-color="rgb(240, 105, 43)"/></linearGradient><linearGradient id="t4Hv0Mdot-4011442835-linear-gradient" x1="0.49751243781094523" x2="0.5024875621890548" y1="0" y2="1"><stop offset="0" stop-color="rgb(243, 156, 64)"/><stop offset="1" stop-color="rgb(240, 105, 43)"/></linearGradient></defs><g d="M 5.82 24.986 C 5.82 28.201 3.215 30.807 0 30.807 L 0 35.7 C 5.917 35.7 10.714 30.903 10.714 24.986 L 10.714 2.061 L 5.799 2.061 Z M 18.032 10.714 C 18.032 7.499 20.637 4.893 23.852 4.893 L 23.852 0 C 17.935 0 13.138 4.797 13.138 10.714 L 13.138 33.639 L 18.053 33.639 Z M 22.845 27.712 C 22.845 27.657 22.831 27.613 22.801 27.575 C 22.772 27.537 22.721 27.518 22.652 27.518 L 22.579 27.518 C 22.509 27.518 22.463 27.533 22.438 27.562 C 22.415 27.592 22.402 27.638 22.402 27.703 L 22.402 32.759 C 22.402 32.876 22.381 32.987 22.341 33.093 C 22.301 33.198 22.242 33.29 22.165 33.37 C 22.087 33.45 21.992 33.515 21.879 33.563 C 21.765 33.611 21.637 33.637 21.492 33.637 L 20.856 33.637 C 20.711 33.637 20.582 33.611 20.469 33.563 C 20.355 33.515 20.261 33.45 20.183 33.37 C 20.106 33.29 20.047 33.198 20.007 33.093 C 19.967 32.987 19.946 32.876 19.946 32.759 L 19.946 26.47 L 20.952 26.47 L 20.952 32.412 C 20.952 32.471 20.965 32.517 20.988 32.548 C 21.011 32.58 21.06 32.597 21.129 32.597 L 21.202 32.597 C 21.272 32.597 21.32 32.578 21.347 32.54 C 21.375 32.502 21.387 32.456 21.387 32.403 L 21.387 27.354 C 21.387 27.237 21.408 27.123 21.452 27.016 C 21.494 26.909 21.557 26.814 21.637 26.734 C 21.717 26.655 21.814 26.59 21.927 26.541 C 22.041 26.493 22.167 26.468 22.305 26.468 L 22.942 26.468 C 23.087 26.468 23.215 26.493 23.329 26.541 C 23.442 26.59 23.537 26.655 23.614 26.734 C 23.692 26.814 23.751 26.909 23.791 27.016 C 23.831 27.123 23.852 27.237 23.852 27.354 L 23.852 33.635 L 22.845 33.635 L 22.845 27.709 Z M 23.852 24.701 L 23.852 25.739 L 22.845 25.739 L 22.845 24.701 Z M 22.404 22.881 L 22.847 22.881 L 22.847 16.754 L 23.854 16.754 L 23.854 23.919 L 19.95 23.919 L 19.95 16.754 L 20.956 16.754 L 20.956 22.881 L 21.391 22.881 L 21.391 16.754 L 22.406 16.754 L 22.406 22.881 Z M 23.852 14.983 L 23.852 16.021 L 22.845 16.021 L 22.845 14.983 Z M 23.852 14.5 L 19.948 11.27 L 19.948 10.344 L 23.852 7.114 L 23.852 8.402 L 22.959 9.159 L 22.959 12.46 L 23.852 13.208 Z M 21.975 9.984 L 20.994 10.814 L 21.975 11.653 Z" fill="transparent" height="35.70008750232696px" id="NFu3O9Dna" transform="translate(9.451 3.15)" width="23.853916021728494px"><path d="M 5.82 22.925 C 5.82 26.14 3.215 28.745 0 28.745 L 0 33.639 C 5.917 33.639 10.714 28.842 10.714 22.925 L 10.714 0 L 5.799 0 Z" fill="url(#IkSJqScHe-4011442835-linear-gradient)" height="33.63890249999999px" id="IkSJqScHe" transform="translate(0 2.061)" width="10.71351749999998px"/><path d="M 4.893 10.714 C 4.893 7.499 7.499 4.893 10.714 4.893 L 10.714 0 C 4.797 0 0 4.797 0 10.714 L 0 33.639 L 4.915 33.639 Z" fill="url(#zJPrPLdIS-4011442835-linear-gradient)" height="33.6387625px" id="zJPrPLdIS" transform="translate(13.138 0)" width="10.713500000000025px"/><path d="M 2.9 1.244 C 2.9 1.189 2.885 1.145 2.855 1.107 C 2.826 1.069 2.776 1.051 2.706 1.051 L 2.633 1.051 C 2.563 1.051 2.517 1.065 2.492 1.095 C 2.469 1.124 2.456 1.17 2.456 1.235 L 2.456 6.291 C 2.456 6.408 2.435 6.52 2.395 6.625 C 2.355 6.73 2.297 6.822 2.219 6.902 C 2.141 6.982 2.046 7.047 1.933 7.095 C 1.82 7.144 1.691 7.169 1.546 7.169 L 0.91 7.169 C 0.765 7.169 0.637 7.144 0.523 7.095 C 0.41 7.047 0.315 6.982 0.237 6.902 C 0.16 6.822 0.101 6.73 0.061 6.625 C 0.021 6.52 0 6.408 0 6.291 L 0 0.002 L 1.006 0.002 L 1.006 5.944 C 1.006 6.003 1.019 6.049 1.042 6.081 C 1.065 6.112 1.114 6.129 1.183 6.129 L 1.257 6.129 C 1.326 6.129 1.374 6.11 1.401 6.072 C 1.429 6.034 1.441 5.988 1.441 5.936 L 1.441 0.887 C 1.441 0.769 1.462 0.656 1.507 0.548 C 1.549 0.441 1.612 0.347 1.691 0.267 C 1.771 0.187 1.868 0.122 1.981 0.074 C 2.095 0.025 2.221 0 2.36 0 L 2.996 0 C 3.141 0 3.269 0.025 3.383 0.074 C 3.496 0.122 3.591 0.187 3.669 0.267 C 3.746 0.347 3.805 0.441 3.845 0.548 C 3.885 0.656 3.906 0.769 3.906 0.887 L 3.906 7.167 L 2.9 7.167 L 2.9 1.242 Z" fill="url(#JxWLPhSvp-4011442835-linear-gradient)" height="7.168874999999986px" id="JxWLPhSvp" transform="translate(19.946 26.468)" width="3.9060000000000485px"/><path d="M 1.006 0 L 1.006 1.038 L 0 1.038 L 0 0 Z" fill="url(#lcRpmLzlR-4011442835-linear-gradient)" height="1.037924999999987px" id="lcRpmLzlR" transform="translate(22.845 24.701)" width="1.0064250000000357px"/><path d="M 2.454 6.127 L 2.897 6.127 L 2.897 0 L 3.904 0 L 3.904 7.165 L 0 7.165 L 0 0 L 1.006 0 L 1.006 6.127 L 1.441 6.127 L 1.441 0 L 2.456 0 L 2.456 6.127 Z" fill="url(#BogR2A1Gs-4011442835-linear-gradient)" height="7.164850000000001px" id="BogR2A1Gs" transform="translate(19.95 16.754)" width="3.903899999999979px"/><path d="M 1.006 0 L 1.006 1.038 L 0 1.038 L 0 0 Z" fill="url(#gNyNMkGak-4011442835-linear-gradient)" height="1.037924999999987px" id="gNyNMkGak" transform="translate(22.845 14.983)" width="1.0064250000000357px"/><path d="M 3.904 7.385 L 0 4.156 L 0 3.229 L 3.904 0 L 3.904 1.288 L 3.011 2.044 L 3.011 5.345 L 3.904 6.093 Z M 2.028 2.87 L 1.046 3.7 L 2.028 4.538 Z" fill="url(#t4Hv0Mdot-4011442835-linear-gradient)" height="7.38535000000001px" id="t4Hv0Mdot" transform="translate(19.948 7.114)" width="3.903899999999979px"/></g></svg>