<svg display="block" role="presentation" viewBox="0 0 42 42" xmlns="http://www.w3.org/2000/svg"><defs ><linearGradient id="V239GZgCn-1563640371-linear-gradient" x1="0.49751243781094523" x2="0.5024875621890548" y1="0" y2="1"><stop offset="0" stop-color="rgb(114, 154, 208)"/><stop offset="1" stop-color="rgb(53, 77, 108)"/></linearGradient></defs><g d="M 0 42 L 0 0 L 42 0 L 42 42 Z M 11.919 20.896 L 18.217 20.896 C 18.864 20.896 19.425 20.421 19.425 19.686 C 19.425 15.495 21.022 13.767 24.861 13.767 C 28.269 13.767 31.289 15.063 31.979 18.347 C 32.195 19.514 31.246 20.464 30.081 20.464 L 23.782 20.464 C 23.135 20.464 22.574 20.94 22.574 21.674 C 22.574 25.866 20.978 27.594 17.139 27.594 C 13.73 27.594 10.711 26.298 10.02 23.014 C 9.805 21.847 10.754 20.896 11.919 20.896 Z M 0.055 21.933 C 1.306 25.218 6.785 28.761 16.233 28.761 C 24.861 28.761 30.167 25.779 31.936 22.755 C 32.583 21.674 33.36 20.896 34.611 20.896 L 40.693 20.896 C 41.513 20.896 42.204 20.248 41.945 19.427 C 40.694 16.143 35.215 12.6 25.767 12.6 C 17.139 12.6 11.833 15.582 10.064 18.606 C 9.417 19.686 8.64 20.464 7.389 20.464 L 1.306 20.464 C 0.487 20.464 -0.204 21.113 0.055 21.933 Z" fill="transparent" height="42px" id="EtsTC1ixx" transform="translate(0 0)" width="42.00002749453984px"><path d="M 0 42 L 0 0 L 42 0 L 42 42 Z" fill="transparent" height="42px" id="GOrqCqroQ" transform="translate(0 0)" width="42px"/><g d="M 11.919 8.296 L 18.217 8.296 C 18.864 8.296 19.425 7.821 19.425 7.087 C 19.425 2.895 21.022 1.167 24.861 1.167 C 28.269 1.167 31.289 2.463 31.979 5.747 C 32.195 6.914 31.246 7.864 30.081 7.864 L 23.782 7.864 C 23.135 7.864 22.574 8.34 22.574 9.074 C 22.574 13.266 20.978 14.994 17.139 14.994 C 13.73 14.994 10.711 13.698 10.02 10.414 C 9.805 9.247 10.754 8.296 11.919 8.296 Z M 0.055 9.334 C 1.306 12.618 6.785 16.161 16.233 16.161 C 24.861 16.161 30.167 13.179 31.936 10.155 C 32.583 9.074 33.36 8.296 34.611 8.296 L 40.693 8.296 C 41.513 8.296 42.204 7.648 41.945 6.827 C 40.694 3.543 35.215 0 25.767 0 C 17.139 0 11.833 2.982 10.064 6.006 C 9.417 7.087 8.64 7.864 7.389 7.864 L 1.306 7.864 C 0.487 7.864 -0.204 8.513 0.055 9.334 Z" fill="transparent" height="16.16098749999999px" id="fqAOi5sa1" transform="translate(0 12.6)" width="42.000027436000416px"><path d="M 11.919 8.296 L 18.217 8.296 C 18.864 8.296 19.425 7.821 19.425 7.087 C 19.425 2.895 21.022 1.167 24.861 1.167 C 28.269 1.167 31.289 2.463 31.979 5.747 C 32.195 6.914 31.246 7.864 30.081 7.864 L 23.782 7.864 C 23.135 7.864 22.574 8.34 22.574 9.074 C 22.574 13.266 20.978 14.994 17.139 14.994 C 13.73 14.994 10.711 13.698 10.02 10.414 C 9.805 9.247 10.754 8.296 11.919 8.296 Z M 0.055 9.334 C 1.306 12.618 6.785 16.161 16.233 16.161 C 24.861 16.161 30.167 13.179 31.936 10.155 C 32.583 9.074 33.36 8.296 34.611 8.296 L 40.693 8.296 C 41.513 8.296 42.204 7.648 41.945 6.827 C 40.694 3.543 35.215 0 25.767 0 C 17.139 0 11.833 2.982 10.064 6.006 C 9.417 7.087 8.64 7.864 7.389 7.864 L 1.306 7.864 C 0.487 7.864 -0.204 8.513 0.055 9.334 Z" fill="url(#V239GZgCn-1563640371-linear-gradient)" height="16.16098749999999px" id="V239GZgCn" width="42.000027436000416px"/></g></g></svg>