<svg display="block" role="presentation" viewBox="0 0 42 42" xmlns="http://www.w3.org/2000/svg"><defs ><linearGradient id="rNs8GJcAc-4017883278-linear-gradient" x1="0.49751243781094523" x2="0.5024875621890548" y1="0" y2="1"><stop offset="0" stop-color="rgb(255, 196, 0)"/><stop offset="1" stop-color="rgb(245, 166, 1)"/></linearGradient><linearGradient id="v_FcAClyZ-4017883278-linear-gradient" x1="0.49751243781094523" x2="0.5024875621890548" y1="0" y2="1"><stop offset="0" stop-color="rgb(255, 196, 0)"/><stop offset="1" stop-color="rgb(245, 166, 1)"/></linearGradient><linearGradient id="D9rAC7KwJ-4017883278-linear-gradient" x1="0.49751243781094523" x2="0.5024875621890548" y1="0" y2="1"><stop offset="0" stop-color="rgb(255, 196, 0)"/><stop offset="1" stop-color="rgb(245, 166, 1)"/></linearGradient><linearGradient id="l4Gwa0YFL-4017883278-linear-gradient" x1="0.49751243781094523" x2="0.5024875621890548" y1="0" y2="1"><stop offset="0" stop-color="rgb(255, 196, 0)"/><stop offset="1" stop-color="rgb(245, 166, 1)"/></linearGradient><linearGradient id="HpDjV3xVO-4017883278-linear-gradient" x1="0.49751243781094523" x2="0.5024875621890548" y1="0" y2="1"><stop offset="0" stop-color="rgb(255, 196, 0)"/><stop offset="1" stop-color="rgb(245, 166, 1)"/></linearGradient><linearGradient id="XAu2DqpwS-4017883278-linear-gradient" x1="0.49751243781094523" x2="0.5024875621890548" y1="0" y2="1"><stop offset="0" stop-color="rgb(255, 196, 0)"/><stop offset="1" stop-color="rgb(245, 166, 1)"/></linearGradient><linearGradient id="OfMLMa6Db-4017883278-linear-gradient" x1="0.49751243781094523" x2="0.5024875621890548" y1="0" y2="1"><stop offset="0" stop-color="rgb(255, 196, 0)"/><stop offset="1" stop-color="rgb(245, 166, 1)"/></linearGradient></defs><g d="M 16.188 11.508 C 16.944 10.773 17.631 9.979 18.234 9.114 C 18.826 8.264 19.328 7.368 19.613 6.365 C 19.804 5.692 19.887 5.009 19.755 4.314 C 19.593 3.464 19.139 2.822 18.35 2.449 C 17.485 2.04 16.59 2.045 15.686 2.316 C 15.598 2.342 15.605 2.371 15.657 2.432 C 15.815 2.616 15.955 2.813 16.068 3.027 C 16.125 3.135 16.178 3.148 16.291 3.114 C 16.856 2.943 17.378 3.034 17.837 3.411 C 18.219 3.725 18.481 4.129 18.658 4.584 C 18.818 4.994 18.778 5.417 18.686 5.836 C 18.514 6.615 18.165 7.322 17.769 8.007 C 17.226 8.946 16.591 9.82 15.9 10.656 C 15.769 10.816 15.63 10.969 15.495 11.126 C 15.425 11.206 15.373 11.125 15.326 11.097 C 15.261 11.059 15.333 11.028 15.354 11.005 C 15.833 10.475 16.272 9.913 16.687 9.333 C 17.168 8.662 17.611 7.969 17.978 7.229 C 18.008 7.17 18.008 7.125 17.977 7.067 C 17.889 6.903 17.794 6.743 17.683 6.594 C 17.42 6.238 17.1 5.953 16.69 5.774 C 16.627 5.746 16.612 5.756 16.603 5.825 C 16.537 6.325 16.41 6.81 16.234 7.283 C 15.854 8.305 15.302 9.232 14.654 10.105 C 14.529 10.274 14.396 10.437 14.266 10.602 C 14.201 10.684 14.133 10.616 14.084 10.589 C 14.024 10.555 14.097 10.521 14.116 10.497 C 14.369 10.182 14.612 9.861 14.839 9.527 C 15.434 8.65 15.933 7.725 16.23 6.702 C 16.421 6.041 16.513 5.369 16.435 4.681 C 16.344 3.866 16.013 3.154 15.496 2.524 C 14.787 1.66 13.867 1.394 12.81 1.757 C 12.087 2.005 11.49 2.452 10.932 2.958 C 10.898 2.987 10.899 3.011 10.918 3.046 C 11.032 3.253 11.059 3.475 11.038 3.707 C 11.036 3.728 11.023 3.754 11.052 3.776 C 11.192 3.684 11.33 3.589 11.474 3.501 C 12.006 3.175 12.562 2.902 13.192 2.822 C 13.751 2.751 14.256 2.87 14.667 3.28 C 15.099 3.711 15.265 4.253 15.301 4.842 C 15.351 5.659 15.161 6.436 14.875 7.193 C 14.454 8.307 13.838 9.312 13.124 10.261 C 13.09 10.307 12.966 10.32 12.923 10.274 C 12.873 10.223 12.953 10.206 12.963 10.169 C 12.967 10.153 12.983 10.141 12.994 10.127 C 13.701 9.182 14.312 8.182 14.722 7.07 C 14.968 6.404 15.134 5.721 15.121 5.004 C 15.12 4.942 15.108 4.894 15.058 4.85 C 14.719 4.553 14.354 4.295 13.937 4.117 C 13.447 3.906 12.939 3.83 12.41 3.921 C 11.808 4.025 11.298 4.317 10.825 4.687 C 10.752 4.744 10.729 4.807 10.729 4.898 C 10.732 6.545 10.731 8.192 10.731 9.838 C 10.731 9.896 10.745 9.953 10.647 9.95 C 10.56 9.947 10.529 9.919 10.541 9.835 C 10.545 9.811 10.542 9.787 10.542 9.763 C 10.542 8.051 10.542 6.338 10.542 4.626 C 10.542 4.511 10.542 4.513 10.441 4.563 C 10.219 4.673 9.987 4.717 9.739 4.677 C 9.578 4.651 9.433 4.585 9.279 4.504 L 9.279 7.349 C 9.279 8.18 9.279 9.01 9.279 9.84 C 9.279 9.889 9.296 9.943 9.21 9.948 C 9.12 9.953 9.086 9.937 9.086 9.835 C 9.089 8.181 9.088 6.528 9.09 4.874 C 9.09 4.799 9.071 4.748 9.01 4.7 C 8.798 4.533 8.579 4.378 8.341 4.25 C 7.727 3.921 7.081 3.792 6.392 3.95 C 5.752 4.097 5.223 4.444 4.739 4.872 C 4.695 4.911 4.701 4.957 4.7 5.004 C 4.686 5.643 4.821 6.256 5.023 6.856 C 5.35 7.827 5.841 8.715 6.418 9.556 C 6.568 9.775 6.729 9.986 6.883 10.203 C 6.897 10.222 6.941 10.243 6.897 10.276 C 6.833 10.324 6.734 10.309 6.684 10.243 C 6.322 9.764 5.986 9.268 5.689 8.746 C 5.099 7.708 4.63 6.626 4.526 5.419 C 4.482 4.919 4.52 4.426 4.711 3.957 C 4.907 3.474 5.226 3.103 5.724 2.911 C 6.101 2.766 6.489 2.779 6.875 2.864 C 7.547 3.014 8.135 3.344 8.695 3.729 C 8.725 3.75 8.75 3.782 8.797 3.779 C 8.798 3.765 8.802 3.752 8.8 3.74 C 8.76 3.497 8.803 3.267 8.913 3.049 C 8.94 2.995 8.906 2.973 8.876 2.946 C 8.505 2.609 8.111 2.302 7.673 2.056 C 7.223 1.803 6.748 1.62 6.226 1.599 C 5.58 1.573 5.028 1.807 4.577 2.261 C 3.548 3.298 3.198 4.549 3.428 5.975 C 3.545 6.699 3.791 7.38 4.111 8.037 C 4.538 8.914 5.077 9.721 5.691 10.478 C 5.716 10.508 5.772 10.539 5.75 10.577 C 5.725 10.621 5.661 10.629 5.61 10.63 C 5.551 10.632 5.529 10.572 5.498 10.534 C 5.029 9.95 4.604 9.335 4.238 8.681 C 3.764 7.83 3.394 6.94 3.238 5.972 C 3.226 5.9 3.249 5.788 3.189 5.765 C 3.128 5.741 3.046 5.813 2.977 5.85 C 2.464 6.124 2.12 6.554 1.85 7.055 C 1.813 7.123 1.814 7.177 1.849 7.245 C 2.364 8.264 3.007 9.201 3.709 10.098 C 3.955 10.413 4.209 10.722 4.479 11.017 C 4.497 11.037 4.536 11.054 4.506 11.093 C 4.455 11.16 4.357 11.162 4.3 11.097 C 3.472 10.154 2.725 9.152 2.09 8.07 C 1.707 7.418 1.368 6.745 1.176 6.008 C 1.075 5.619 1.017 5.226 1.095 4.824 C 1.168 4.448 1.365 4.132 1.587 3.832 C 2.054 3.204 2.717 2.842 3.608 3.136 C 3.672 3.157 3.693 3.126 3.719 3.08 C 3.851 2.849 3.996 2.627 4.17 2.426 C 4.233 2.354 4.209 2.339 4.135 2.316 C 3.48 2.113 2.814 2.061 2.144 2.217 C 1.03 2.477 0.315 3.146 0.071 4.283 C 0.045 4.405 0.053 4.534 0 4.651 L 0 5.354 C 0.043 5.438 0.035 5.532 0.047 5.621 C 0.155 6.366 0.41 7.062 0.749 7.728 C 1.294 8.798 2.007 9.751 2.803 10.644 C 3.076 10.951 3.36 11.248 3.656 11.532 C 3.707 11.58 3.707 11.607 3.65 11.648 C 3.571 11.706 3.513 11.783 3.474 11.874 C 3.354 12.151 3.547 12.418 3.845 12.377 C 3.923 12.366 3.955 12.39 3.993 12.447 C 4.377 13.035 4.611 13.682 4.764 14.363 C 4.785 14.453 4.76 14.506 4.692 14.564 C 4.556 14.68 4.463 14.828 4.489 15.015 C 4.501 15.101 4.479 15.135 4.402 15.167 C 3.416 15.575 2.417 15.941 1.356 16.107 C 1.304 16.115 1.282 16.136 1.279 16.194 C 1.241 16.936 1.203 17.679 1.161 18.421 C 1.13 18.981 1.094 19.541 1.062 20.101 C 1.009 21.022 0.945 21.942 0.872 22.862 C 0.823 23.489 0.777 24.118 0.719 24.745 C 0.646 25.539 0.567 26.334 0.454 27.124 C 0.393 27.553 0.335 27.983 0.203 28.399 C 0.181 28.47 0.183 28.528 0.218 28.594 C 0.491 29.109 0.787 29.611 1.107 30.097 C 2.4 32.059 3.942 33.8 5.758 35.295 C 6.964 36.288 8.266 37.131 9.701 37.761 C 9.816 37.812 9.936 37.813 10.052 37.766 C 10.154 37.725 10.254 37.677 10.354 37.631 C 12.144 36.793 13.715 35.642 15.146 34.292 C 15.914 33.567 16.629 32.792 17.292 31.969 C 18.142 30.915 18.905 29.803 19.541 28.606 C 19.579 28.535 19.595 28.474 19.561 28.393 C 19.524 28.309 19.507 28.216 19.486 28.126 C 19.354 27.53 19.282 26.925 19.21 26.32 C 19.132 25.664 19.07 25.007 19.012 24.349 C 18.964 23.797 18.922 23.244 18.881 22.692 C 18.826 21.943 18.772 21.195 18.723 20.446 C 18.688 19.931 18.661 19.416 18.632 18.9 C 18.585 18.034 18.538 17.168 18.493 16.302 C 18.484 16.127 18.488 16.125 18.315 16.095 C 17.328 15.923 16.39 15.59 15.467 15.21 C 15.42 15.19 15.392 15.171 15.417 15.111 C 15.48 14.959 15.434 14.821 15.349 14.691 C 15.286 14.595 15.197 14.523 15.11 14.45 C 15.074 14.419 15.052 14.392 15.064 14.337 C 15.215 13.662 15.453 13.024 15.832 12.442 C 15.868 12.387 15.9 12.364 15.972 12.377 C 16.11 12.402 16.235 12.362 16.318 12.242 C 16.402 12.122 16.403 11.99 16.342 11.859 C 16.307 11.783 16.258 11.714 16.19 11.666 C 16.109 11.608 16.125 11.57 16.188 11.508 Z M 16.593 16.759 C 16.865 16.856 17.143 16.939 17.426 16.999 C 17.53 17.021 17.551 17.063 17.541 17.157 C 17.493 17.659 17.493 18.162 17.506 18.664 C 17.523 19.366 17.549 20.068 17.598 20.769 C 17.637 21.318 17.667 21.867 17.711 22.416 C 17.764 23.088 17.827 23.759 17.888 24.431 C 17.937 24.958 17.987 25.486 18.041 26.013 C 18.09 26.495 18.145 26.977 18.199 27.458 C 18.214 27.595 18.228 27.732 18.245 27.868 C 18.255 27.95 18.234 28.025 18.21 28.101 C 17.94 28.964 17.506 29.744 16.985 30.479 C 16.167 31.636 15.182 32.641 14.118 33.572 C 12.827 34.703 11.443 35.708 9.983 36.611 C 9.89 36.669 9.827 36.666 9.735 36.609 C 8.5 35.843 7.323 34.996 6.205 34.069 C 5.31 33.326 4.463 32.532 3.699 31.653 C 2.932 30.77 2.255 29.826 1.793 28.744 C 1.717 28.564 1.663 28.374 1.582 28.195 C 1.485 27.979 1.536 27.763 1.558 27.547 C 1.623 26.911 1.694 26.275 1.759 25.638 C 1.822 25.026 1.884 24.414 1.939 23.8 C 1.988 23.259 2.025 22.717 2.07 22.175 C 2.129 21.483 2.171 20.789 2.208 20.095 C 2.254 19.221 2.276 18.347 2.25 17.472 C 2.247 17.348 2.236 17.225 2.22 17.102 C 2.213 17.042 2.238 17.024 2.289 17.012 C 3.432 16.737 4.502 16.273 5.544 15.739 C 6.49 15.255 7.407 14.72 8.243 14.06 C 8.43 13.912 8.629 13.865 8.847 13.835 C 9.216 13.784 9.586 13.75 9.973 13.745 C 10.373 13.75 10.785 13.792 11.194 13.852 C 11.246 13.859 11.29 13.882 11.332 13.915 C 12.927 15.156 14.691 16.084 16.593 16.759 Z M 15.131 14.911 C 15.144 14.943 15.156 14.984 15.13 15.009 C 15.097 15.039 15.067 15 15.043 14.981 C 14.765 14.756 14.455 14.584 14.134 14.431 C 13.326 14.047 12.476 13.795 11.6 13.625 C 11.058 13.519 10.511 13.452 9.708 13.455 C 8.946 13.464 7.965 13.657 7.004 13.96 C 6.322 14.175 5.66 14.438 5.065 14.846 C 4.994 14.895 4.927 14.949 4.858 15 C 4.842 15.012 4.822 15.027 4.801 15.016 C 4.774 15.002 4.78 14.974 4.783 14.952 C 4.792 14.887 4.834 14.84 4.878 14.796 C 5.123 14.554 5.405 14.363 5.705 14.199 C 6.533 13.746 7.426 13.484 8.349 13.314 C 8.893 13.213 9.441 13.146 9.993 13.159 C 11.42 13.191 12.789 13.483 14.074 14.12 C 14.412 14.287 14.726 14.494 15.004 14.75 C 15.055 14.797 15.104 14.846 15.131 14.911 Z M 15.08 13.219 C 15.08 13.217 15.082 13.215 15.084 13.214 C 15.085 13.213 15.085 13.212 15.086 13.212 C 15.086 13.212 15.085 13.213 15.084 13.214 C 15.082 13.215 15.08 13.217 15.08 13.219 Z M 15.596 12.262 C 15.417 12.525 15.273 12.806 15.145 13.096 C 15.142 13.105 15.133 13.111 15.113 13.133 C 15.142 12.974 15.126 12.839 15.044 12.716 C 14.923 12.534 14.707 12.45 14.504 12.506 C 14.288 12.565 14.134 12.748 14.125 12.957 C 14.115 13.19 14.241 13.382 14.458 13.463 C 14.655 13.537 14.881 13.473 15.017 13.305 C 15.027 13.292 15.039 13.28 15.051 13.267 C 15.057 13.263 15.063 13.259 15.069 13.255 C 15.067 13.263 15.065 13.271 15.063 13.279 C 14.972 13.564 14.87 13.845 14.806 14.138 C 14.792 14.204 14.759 14.179 14.725 14.157 C 14.157 13.781 13.533 13.526 12.886 13.326 C 12.243 13.127 11.586 12.99 10.916 12.92 C 9.162 12.735 7.493 13.053 5.893 13.769 C 5.622 13.89 5.366 14.041 5.123 14.212 C 5.065 14.252 5.041 14.257 5.024 14.176 C 4.959 13.869 4.853 13.575 4.756 13.277 C 4.744 13.265 4.734 13.252 4.75 13.236 C 4.756 13.246 4.763 13.256 4.769 13.266 C 4.96 13.48 5.153 13.542 5.371 13.459 C 5.618 13.365 5.75 13.106 5.678 12.857 C 5.605 12.605 5.353 12.446 5.105 12.497 C 4.838 12.552 4.67 12.78 4.699 13.048 C 4.702 13.071 4.7 13.094 4.7 13.146 C 4.602 12.938 4.523 12.752 4.419 12.579 C 4.36 12.481 4.306 12.381 4.24 12.289 C 4.193 12.222 4.21 12.196 4.275 12.158 C 4.601 11.968 4.944 11.816 5.296 11.686 C 6.285 11.319 7.305 11.077 8.35 10.931 C 8.986 10.842 9.624 10.788 10.267 10.817 C 11.265 10.863 12.246 11.027 13.212 11.276 C 13.877 11.448 14.529 11.657 15.152 11.951 C 15.295 12.018 15.431 12.1 15.571 12.174 C 15.611 12.196 15.627 12.218 15.597 12.263 Z M 14.994 12.99 C 14.995 13.189 14.825 13.356 14.624 13.356 C 14.425 13.355 14.264 13.195 14.263 12.996 C 14.261 12.788 14.418 12.628 14.623 12.627 C 14.827 12.626 14.993 12.788 14.994 12.99 Z M 4.828 12.987 C 4.831 12.784 4.995 12.625 5.201 12.626 C 5.408 12.628 5.561 12.788 5.558 12.999 C 5.555 13.201 5.397 13.357 5.195 13.356 C 4.992 13.355 4.825 13.187 4.828 12.987 Z M 16.072 12.068 C 16.051 12.093 16.023 12.092 15.996 12.081 C 15.97 12.072 15.944 12.062 15.921 12.047 C 15.328 11.649 14.667 11.402 13.991 11.19 C 13.065 10.898 12.118 10.702 11.153 10.59 C 10.742 10.542 10.329 10.51 10.099 10.515 C 8.92 10.52 7.943 10.662 6.976 10.882 C 6.205 11.057 5.449 11.28 4.724 11.599 C 4.452 11.719 4.189 11.855 3.94 12.018 C 3.884 12.055 3.81 12.136 3.753 12.06 C 3.698 11.986 3.785 11.922 3.841 11.875 C 4.152 11.615 4.503 11.415 4.872 11.249 C 5.966 10.757 7.121 10.491 8.305 10.333 C 8.86 10.259 9.417 10.209 9.976 10.221 C 11.57 10.253 13.123 10.522 14.613 11.104 C 15.093 11.292 15.55 11.526 15.954 11.852 C 16.002 11.891 16.047 11.934 16.075 11.991 C 16.087 12.017 16.093 12.044 16.072 12.068 Z M 8.708 1.959 C 8.905 1.955 9.101 1.961 9.298 1.956 C 9.373 1.954 9.402 1.974 9.399 2.053 C 9.393 2.194 9.398 2.336 9.397 2.477 C 9.396 2.528 9.403 2.557 9.466 2.53 C 9.763 2.404 10.062 2.403 10.361 2.527 C 10.421 2.553 10.432 2.532 10.432 2.477 C 10.43 2.336 10.436 2.194 10.429 2.054 C 10.426 1.974 10.455 1.954 10.53 1.956 C 10.727 1.961 10.924 1.955 11.12 1.959 C 11.189 1.96 11.208 1.937 11.207 1.87 C 11.203 1.612 11.204 1.353 11.207 1.095 C 11.208 1.028 11.189 1.005 11.12 1.006 C 10.93 1.01 10.741 1.003 10.551 1.009 C 10.464 1.012 10.439 0.984 10.44 0.898 C 10.443 0.599 10.439 0.3 10.437 0 L 9.381 0 C 9.38 0.303 9.376 0.606 9.38 0.909 C 9.381 0.986 9.357 1.011 9.28 1.009 C 9.087 1.004 8.894 1.01 8.7 1.006 C 8.632 1.004 8.611 1.026 8.612 1.094 C 8.615 1.352 8.616 1.61 8.612 1.868 C 8.61 1.945 8.639 1.96 8.708 1.959 Z M 9.925 2.623 C 9.398 2.62 8.974 3.036 8.971 3.56 C 8.968 4.08 9.395 4.506 9.918 4.506 C 10.44 4.506 10.856 4.09 10.856 3.567 C 10.858 3.041 10.448 2.626 9.925 2.623 Z M 10.839 24.402 C 10.817 24.364 10.862 24.335 10.882 24.306 C 10.987 24.154 11.053 23.985 11.097 23.807 C 11.188 23.44 11.154 23.067 11.161 22.696 C 11.163 22.64 11.131 22.637 11.089 22.637 C 10.909 22.638 10.73 22.641 10.55 22.635 C 10.473 22.633 10.459 22.664 10.461 22.732 C 10.464 22.849 10.466 22.967 10.457 23.083 C 10.447 23.221 10.366 23.303 10.247 23.313 C 10.14 23.322 10.065 23.259 10.029 23.12 C 9.991 22.973 9.978 22.822 9.979 22.67 C 9.986 22.1 9.708 21.689 9.254 21.378 C 9.083 21.261 8.889 21.192 8.663 21.137 C 8.819 21.097 8.951 21.073 9.076 21.023 C 9.545 20.834 9.916 20.542 10.062 20.037 C 10.193 19.584 10.125 19.134 9.979 18.698 C 9.82 18.223 9.453 17.945 9.006 17.76 C 8.496 17.55 7.957 17.503 7.414 17.492 C 7.021 17.484 6.628 17.49 6.234 17.49 C 5.478 17.49 4.722 17.491 3.967 17.489 C 3.892 17.488 3.865 17.505 3.866 17.585 C 3.87 17.974 3.87 18.363 3.866 18.753 C 3.865 18.828 3.882 18.857 3.963 18.853 C 4.086 18.846 4.211 18.857 4.335 18.849 C 4.427 18.843 4.45 18.873 4.45 18.964 C 4.447 20.001 4.448 21.038 4.448 22.075 C 4.448 22.475 4.446 22.874 4.45 23.274 C 4.451 23.356 4.426 23.382 4.344 23.379 C 4.22 23.372 4.095 23.381 3.971 23.375 C 3.891 23.372 3.865 23.394 3.866 23.478 C 3.87 23.867 3.87 24.256 3.866 24.646 C 3.865 24.73 3.893 24.748 3.972 24.748 C 4.517 24.745 5.062 24.746 5.607 24.746 C 6.115 24.746 6.622 24.745 7.129 24.747 C 7.197 24.747 7.227 24.735 7.226 24.658 C 7.223 24.258 7.223 23.858 7.226 23.459 C 7.226 23.396 7.207 23.374 7.144 23.376 C 6.985 23.379 6.826 23.375 6.667 23.378 C 6.613 23.379 6.586 23.367 6.587 23.304 C 6.589 22.815 6.588 22.326 6.587 21.837 C 6.587 21.782 6.607 21.764 6.66 21.766 C 6.818 21.775 6.976 21.784 7.132 21.82 C 7.388 21.879 7.538 22.037 7.584 22.296 C 7.608 22.432 7.622 22.569 7.622 22.707 C 7.623 22.941 7.623 23.175 7.664 23.407 C 7.77 24.005 8.058 24.469 8.643 24.705 C 9.061 24.873 9.5 24.897 9.945 24.85 C 10.089 24.835 10.088 24.829 10.088 24.972 C 10.088 25.21 10.091 25.448 10.086 25.685 C 10.085 25.764 10.11 25.786 10.187 25.783 C 10.324 25.777 10.463 25.788 10.601 25.779 C 10.702 25.773 10.735 25.798 10.734 25.907 C 10.729 26.638 10.731 27.368 10.731 28.098 C 10.731 28.781 10.732 29.463 10.731 30.145 C 10.731 30.307 10.75 30.284 10.585 30.285 C 10.451 30.286 10.316 30.289 10.182 30.284 C 10.112 30.282 10.086 30.299 10.086 30.374 C 10.09 30.774 10.089 31.174 10.087 31.573 C 10.086 31.643 10.102 31.669 10.177 31.669 C 11.406 31.666 12.635 31.667 13.863 31.668 C 13.933 31.668 13.959 31.653 13.958 31.578 C 13.955 31.178 13.954 30.779 13.959 30.379 C 13.959 30.298 13.932 30.283 13.858 30.284 C 13.575 30.288 13.292 30.282 13.009 30.287 C 12.927 30.289 12.895 30.273 12.897 30.182 C 12.902 29.81 12.902 29.438 12.897 29.066 C 12.896 28.981 12.924 28.963 13.003 28.964 C 13.593 28.967 14.183 28.964 14.773 28.967 C 14.849 28.967 14.874 28.948 14.873 28.869 C 14.869 28.48 14.868 28.091 14.873 27.702 C 14.874 27.61 14.853 27.579 14.755 27.58 C 14.171 27.585 13.588 27.58 13.005 27.584 C 12.917 27.585 12.896 27.558 12.897 27.474 C 12.901 26.943 12.901 26.412 12.897 25.882 C 12.896 25.798 12.923 25.779 13.003 25.78 C 13.455 25.783 13.907 25.784 14.359 25.78 C 14.443 25.779 14.474 25.801 14.471 25.889 C 14.466 26.13 14.471 26.371 14.468 26.612 C 14.467 26.681 14.484 26.708 14.559 26.708 C 15.111 26.705 15.664 26.705 16.216 26.708 C 16.286 26.708 16.313 26.69 16.313 26.616 C 16.31 25.916 16.311 25.217 16.312 24.518 C 16.313 24.439 16.29 24.412 16.206 24.413 C 15.809 24.417 15.412 24.415 15.016 24.415 C 13.656 24.415 12.296 24.415 10.936 24.414 C 10.903 24.414 10.856 24.431 10.839 24.402 Z M 7.257 20.593 C 7.061 20.614 6.865 20.6 6.668 20.608 C 6.603 20.611 6.586 20.587 6.587 20.525 C 6.59 20.256 6.588 19.988 6.588 19.719 C 6.588 19.458 6.588 19.196 6.588 18.935 C 6.588 18.891 6.576 18.839 6.648 18.84 C 6.912 18.844 7.18 18.816 7.441 18.88 C 7.821 18.972 8.024 19.236 8.052 19.661 C 8.089 20.201 7.801 20.535 7.257 20.593 Z M 7.439 11.781 C 7.156 11.78 6.939 11.994 6.938 12.274 C 6.937 12.56 7.145 12.775 7.427 12.778 C 7.714 12.781 7.934 12.565 7.934 12.28 C 7.934 11.999 7.72 11.783 7.439 11.781 Z M 7.438 12.647 C 7.242 12.65 7.067 12.478 7.066 12.28 C 7.065 12.088 7.232 11.918 7.426 11.911 C 7.62 11.905 7.799 12.076 7.804 12.274 C 7.808 12.469 7.638 12.644 7.438 12.647 Z M 12.383 11.781 C 12.102 11.782 11.887 11.998 11.887 12.28 C 11.888 12.562 12.103 12.778 12.384 12.778 C 12.662 12.778 12.886 12.559 12.89 12.284 C 12.895 12.009 12.664 11.78 12.383 11.781 Z M 12.386 12.647 C 12.181 12.644 12.022 12.482 12.024 12.276 C 12.025 12.076 12.185 11.913 12.382 11.911 C 12.578 11.909 12.753 12.082 12.754 12.278 C 12.755 12.478 12.582 12.65 12.386 12.647 Z M 9.922 11.362 C 9.643 11.359 9.418 11.585 9.419 11.867 C 9.42 12.149 9.634 12.361 9.917 12.361 C 10.2 12.361 10.415 12.147 10.415 11.865 C 10.415 11.586 10.199 11.365 9.922 11.362 Z M 9.913 12.231 C 9.718 12.227 9.549 12.059 9.547 11.868 C 9.544 11.673 9.721 11.495 9.915 11.496 C 10.119 11.498 10.28 11.661 10.279 11.865 C 10.279 12.07 10.113 12.236 9.913 12.231 Z" fill="transparent" height="37.80001421450801px" id="coZWYgqBH" transform="translate(11.549 2.1)" width="19.81948663034205px"><path d="M 16.188 9.911 C 16.944 9.177 17.631 8.383 18.234 7.518 C 18.826 6.668 19.328 5.772 19.613 4.769 C 19.804 4.095 19.887 3.412 19.755 2.717 C 19.593 1.867 19.139 1.225 18.35 0.852 C 17.485 0.443 16.59 0.448 15.686 0.719 C 15.598 0.746 15.605 0.774 15.657 0.836 C 15.815 1.019 15.955 1.216 16.068 1.43 C 16.125 1.538 16.178 1.552 16.291 1.518 C 16.856 1.346 17.378 1.437 17.837 1.815 C 18.219 2.128 18.481 2.532 18.658 2.987 C 18.818 3.397 18.778 3.82 18.686 4.239 C 18.514 5.018 18.165 5.725 17.769 6.41 C 17.226 7.349 16.591 8.224 15.9 9.059 C 15.769 9.219 15.63 9.372 15.495 9.529 C 15.425 9.609 15.373 9.528 15.326 9.501 C 15.261 9.462 15.333 9.431 15.354 9.408 C 15.833 8.878 16.272 8.316 16.687 7.736 C 17.168 7.066 17.611 6.372 17.978 5.633 C 18.008 5.573 18.008 5.528 17.977 5.471 C 17.889 5.307 17.794 5.147 17.683 4.997 C 17.42 4.641 17.1 4.356 16.69 4.177 C 16.627 4.149 16.612 4.159 16.603 4.228 C 16.537 4.728 16.41 5.213 16.234 5.686 C 15.854 6.708 15.302 7.636 14.654 8.508 C 14.529 8.677 14.396 8.84 14.266 9.005 C 14.201 9.087 14.133 9.019 14.084 8.992 C 14.024 8.958 14.097 8.925 14.116 8.9 C 14.369 8.585 14.612 8.264 14.839 7.93 C 15.434 7.053 15.933 6.128 16.23 5.105 C 16.421 4.445 16.513 3.772 16.435 3.084 C 16.344 2.27 16.013 1.558 15.496 0.927 C 14.787 0.063 13.867 -0.203 12.81 0.16 C 12.087 0.408 11.49 0.855 10.932 1.361 C 10.898 1.391 10.899 1.414 10.918 1.449 C 11.032 1.656 11.059 1.879 11.038 2.11 C 11.036 2.131 11.023 2.157 11.052 2.179 C 11.192 2.088 11.33 1.992 11.474 1.904 C 12.006 1.578 12.562 1.305 13.192 1.225 C 13.751 1.154 14.256 1.273 14.667 1.683 C 15.099 2.115 15.265 2.656 15.301 3.246 C 15.351 4.062 15.161 4.839 14.875 5.596 C 14.454 6.711 13.838 7.716 13.124 8.665 C 13.09 8.71 12.966 8.723 12.923 8.678 C 12.873 8.626 12.953 8.609 12.963 8.572 C 12.967 8.556 12.983 8.544 12.994 8.53 C 13.701 7.585 14.312 6.586 14.722 5.473 C 14.968 4.807 15.134 4.124 15.121 3.407 C 15.12 3.345 15.108 3.297 15.058 3.253 C 14.719 2.956 14.354 2.699 13.937 2.52 C 13.447 2.309 12.939 2.233 12.41 2.325 C 11.808 2.428 11.298 2.72 10.825 3.09 C 10.752 3.148 10.729 3.21 10.729 3.301 C 10.732 4.948 10.731 6.595 10.731 8.242 C 10.731 8.3 10.745 8.356 10.647 8.353 C 10.56 8.35 10.529 8.322 10.541 8.238 C 10.545 8.215 10.542 8.19 10.542 8.166 C 10.542 6.454 10.542 4.741 10.542 3.029 C 10.542 2.915 10.542 2.916 10.441 2.966 C 10.219 3.076 9.987 3.12 9.739 3.08 C 9.578 3.054 9.433 2.988 9.279 2.907 L 9.279 5.753 C 9.279 6.583 9.279 7.413 9.279 8.243 C 9.279 8.292 9.296 8.346 9.21 8.351 C 9.12 8.356 9.086 8.341 9.086 8.238 C 9.089 6.585 9.088 4.931 9.09 3.277 C 9.09 3.202 9.071 3.151 9.01 3.103 C 8.798 2.936 8.579 2.781 8.341 2.654 C 7.727 2.324 7.081 2.195 6.392 2.353 C 5.752 2.5 5.223 2.848 4.739 3.275 C 4.695 3.314 4.701 3.36 4.7 3.408 C 4.686 4.046 4.821 4.659 5.023 5.26 C 5.35 6.23 5.841 7.118 6.418 7.959 C 6.568 8.178 6.729 8.39 6.883 8.606 C 6.897 8.625 6.941 8.647 6.897 8.679 C 6.833 8.727 6.734 8.712 6.684 8.646 C 6.322 8.167 5.986 7.671 5.689 7.149 C 5.099 6.111 4.63 5.029 4.526 3.822 C 4.482 3.323 4.52 2.83 4.711 2.36 C 4.907 1.878 5.226 1.507 5.724 1.314 C 6.101 1.169 6.489 1.182 6.875 1.268 C 7.547 1.417 8.135 1.747 8.695 2.132 C 8.725 2.153 8.75 2.185 8.797 2.182 C 8.798 2.169 8.802 2.155 8.8 2.143 C 8.76 1.9 8.803 1.67 8.913 1.452 C 8.94 1.398 8.906 1.376 8.876 1.349 C 8.505 1.012 8.111 0.705 7.673 0.459 C 7.223 0.207 6.748 0.023 6.226 0.002 C 5.58 -0.024 5.028 0.21 4.577 0.664 C 3.548 1.701 3.198 2.952 3.428 4.379 C 3.545 5.102 3.791 5.783 4.111 6.44 C 4.538 7.318 5.077 8.124 5.691 8.882 C 5.716 8.912 5.772 8.942 5.75 8.98 C 5.725 9.024 5.661 9.032 5.61 9.034 C 5.551 9.035 5.529 8.975 5.498 8.937 C 5.029 8.353 4.604 7.739 4.238 7.084 C 3.764 6.233 3.394 5.343 3.238 4.375 C 3.226 4.303 3.249 4.191 3.189 4.168 C 3.128 4.144 3.046 4.216 2.977 4.253 C 2.464 4.527 2.12 4.957 1.85 5.458 C 1.813 5.527 1.814 5.58 1.849 5.648 C 2.364 6.667 3.007 7.604 3.709 8.502 C 3.955 8.817 4.209 9.125 4.479 9.42 C 4.497 9.44 4.536 9.457 4.506 9.496 C 4.455 9.564 4.357 9.565 4.3 9.5 C 3.472 8.557 2.725 7.556 2.09 6.474 C 1.707 5.821 1.368 5.148 1.176 4.412 C 1.075 4.022 1.017 3.629 1.095 3.227 C 1.168 2.851 1.365 2.535 1.587 2.236 C 2.054 1.607 2.717 1.246 3.608 1.539 C 3.672 1.56 3.693 1.529 3.719 1.483 C 3.851 1.252 3.996 1.03 4.17 0.829 C 4.233 0.757 4.209 0.742 4.135 0.72 C 3.48 0.516 2.814 0.464 2.144 0.62 C 1.03 0.88 0.315 1.549 0.071 2.686 C 0.045 2.808 0.053 2.937 0 3.054 L 0 3.757 C 0.043 3.841 0.035 3.935 0.047 4.024 C 0.155 4.769 0.41 5.465 0.749 6.132 C 1.294 7.201 2.007 8.154 2.803 9.048 C 3.076 9.354 3.36 9.651 3.656 9.935 C 3.707 9.984 3.707 10.01 3.65 10.052 C 3.571 10.109 3.513 10.186 3.474 10.277 C 3.354 10.555 3.547 10.821 3.845 10.78 C 3.923 10.77 3.955 10.793 3.993 10.85 C 4.377 11.438 4.611 12.085 4.764 12.766 C 4.785 12.857 4.76 12.909 4.692 12.967 C 4.556 13.084 4.463 13.231 4.489 13.418 C 4.501 13.504 4.479 13.538 4.402 13.57 C 3.416 13.978 2.417 14.344 1.356 14.51 C 1.304 14.518 1.282 14.54 1.279 14.597 C 1.241 15.339 1.203 16.082 1.161 16.824 C 1.13 17.384 1.094 17.944 1.062 18.504 C 1.009 19.425 0.945 20.345 0.872 21.265 C 0.823 21.893 0.777 22.521 0.719 23.148 C 0.646 23.942 0.567 24.737 0.454 25.527 C 0.393 25.956 0.335 26.387 0.203 26.802 C 0.181 26.874 0.183 26.931 0.218 26.997 C 0.491 27.512 0.787 28.014 1.107 28.5 C 2.4 30.462 3.942 32.203 5.758 33.698 C 6.964 34.691 8.266 35.534 9.701 36.164 C 9.816 36.215 9.936 36.216 10.052 36.169 C 10.154 36.128 10.254 36.081 10.354 36.034 C 12.144 35.196 13.715 34.045 15.146 32.695 C 15.914 31.97 16.629 31.195 17.292 30.373 C 18.142 29.318 18.905 28.206 19.541 27.009 C 19.579 26.938 19.595 26.877 19.561 26.797 C 19.524 26.712 19.507 26.619 19.486 26.529 C 19.354 25.933 19.282 25.329 19.21 24.724 C 19.132 24.068 19.07 23.41 19.012 22.752 C 18.964 22.2 18.922 21.648 18.881 21.095 C 18.826 20.347 18.772 19.598 18.723 18.85 C 18.688 18.334 18.661 17.819 18.632 17.303 C 18.585 16.437 18.538 15.571 18.493 14.705 C 18.484 14.53 18.488 14.528 18.315 14.498 C 17.328 14.326 16.39 13.993 15.467 13.613 C 15.42 13.593 15.392 13.575 15.417 13.515 C 15.48 13.363 15.434 13.224 15.349 13.095 C 15.286 12.998 15.197 12.927 15.11 12.853 C 15.074 12.823 15.052 12.796 15.064 12.74 C 15.215 12.066 15.453 11.427 15.832 10.845 C 15.868 10.79 15.9 10.768 15.972 10.78 C 16.11 10.805 16.235 10.766 16.318 10.645 C 16.402 10.525 16.403 10.394 16.342 10.262 C 16.307 10.186 16.258 10.117 16.19 10.069 C 16.109 10.011 16.125 9.973 16.188 9.911 Z M 16.593 15.162 C 16.865 15.259 17.143 15.342 17.426 15.402 C 17.53 15.424 17.551 15.467 17.541 15.561 C 17.493 16.062 17.493 16.565 17.506 17.068 C 17.523 17.77 17.549 18.471 17.598 19.172 C 17.637 19.721 17.667 20.27 17.711 20.819 C 17.764 21.491 17.827 22.163 17.888 22.834 C 17.937 23.361 17.987 23.889 18.041 24.416 C 18.09 24.898 18.145 25.38 18.199 25.862 C 18.214 25.998 18.228 26.135 18.245 26.272 C 18.255 26.353 18.234 26.428 18.21 26.504 C 17.94 27.368 17.506 28.147 16.985 28.882 C 16.167 30.039 15.182 31.044 14.118 31.975 C 12.827 33.107 11.443 34.111 9.983 35.015 C 9.89 35.072 9.827 35.069 9.735 35.012 C 8.5 34.246 7.323 33.4 6.205 32.472 C 5.31 31.729 4.463 30.935 3.699 30.056 C 2.932 29.173 2.255 28.23 1.793 27.147 C 1.717 26.967 1.663 26.777 1.582 26.598 C 1.485 26.382 1.536 26.167 1.558 25.95 C 1.623 25.314 1.694 24.678 1.759 24.042 C 1.822 23.429 1.884 22.817 1.939 22.204 C 1.988 21.662 2.025 21.12 2.07 20.578 C 2.129 19.886 2.171 19.192 2.208 18.498 C 2.254 17.625 2.276 16.75 2.25 15.875 C 2.247 15.752 2.236 15.628 2.22 15.505 C 2.213 15.445 2.238 15.427 2.289 15.415 C 3.432 15.14 4.502 14.676 5.544 14.143 C 6.49 13.658 7.407 13.123 8.243 12.463 C 8.43 12.315 8.629 12.268 8.847 12.238 C 9.216 12.187 9.586 12.153 9.973 12.149 C 10.373 12.153 10.785 12.195 11.194 12.255 C 11.246 12.263 11.29 12.285 11.332 12.318 C 12.927 13.56 14.691 14.487 16.593 15.162 Z M 15.131 13.314 C 15.144 13.346 15.156 13.388 15.13 13.412 C 15.097 13.442 15.067 13.404 15.043 13.384 C 14.765 13.16 14.455 12.987 14.134 12.834 C 13.326 12.45 12.476 12.198 11.6 12.028 C 11.058 11.922 10.511 11.855 9.708 11.858 C 8.946 11.868 7.965 12.06 7.004 12.363 C 6.322 12.578 5.66 12.842 5.065 13.249 C 4.994 13.298 4.927 13.353 4.858 13.403 C 4.842 13.415 4.822 13.43 4.801 13.419 C 4.774 13.406 4.78 13.377 4.783 13.355 C 4.792 13.29 4.834 13.243 4.878 13.199 C 5.123 12.958 5.405 12.767 5.705 12.602 C 6.533 12.149 7.426 11.887 8.349 11.717 C 8.893 11.617 9.441 11.55 9.993 11.562 C 11.42 11.594 12.789 11.886 14.074 12.523 C 14.412 12.69 14.726 12.897 15.004 13.154 C 15.055 13.201 15.104 13.249 15.131 13.314 Z M 15.08 11.622 C 15.08 11.62 15.082 11.619 15.084 11.617 C 15.085 11.616 15.085 11.616 15.086 11.615 C 15.086 11.615 15.085 11.616 15.084 11.617 C 15.082 11.618 15.08 11.62 15.08 11.622 Z M 15.596 10.665 C 15.417 10.928 15.273 11.209 15.145 11.499 C 15.142 11.508 15.133 11.514 15.113 11.536 C 15.142 11.377 15.126 11.242 15.044 11.119 C 14.923 10.938 14.707 10.853 14.504 10.909 C 14.288 10.968 14.134 11.151 14.125 11.36 C 14.115 11.593 14.241 11.785 14.458 11.866 C 14.655 11.94 14.881 11.876 15.017 11.708 C 15.027 11.695 15.039 11.683 15.051 11.67 C 15.057 11.666 15.063 11.662 15.069 11.658 C 15.067 11.666 15.065 11.674 15.063 11.682 C 14.972 11.967 14.87 12.249 14.806 12.542 C 14.792 12.607 14.759 12.583 14.725 12.56 C 14.157 12.184 13.533 11.929 12.886 11.729 C 12.243 11.53 11.586 11.394 10.916 11.323 C 9.162 11.138 7.493 11.456 5.893 12.172 C 5.622 12.294 5.366 12.444 5.123 12.615 C 5.065 12.656 5.041 12.66 5.024 12.579 C 4.959 12.273 4.853 11.978 4.756 11.68 C 4.744 11.668 4.734 11.656 4.75 11.639 C 4.756 11.649 4.763 11.659 4.769 11.669 C 4.96 11.883 5.153 11.945 5.371 11.862 C 5.618 11.768 5.75 11.51 5.678 11.26 C 5.605 11.008 5.353 10.85 5.105 10.901 C 4.838 10.955 4.67 11.184 4.699 11.451 C 4.702 11.474 4.7 11.497 4.7 11.549 C 4.602 11.341 4.523 11.155 4.419 10.982 C 4.36 10.884 4.306 10.784 4.24 10.692 C 4.193 10.625 4.21 10.599 4.275 10.561 C 4.601 10.372 4.944 10.219 5.296 10.089 C 6.285 9.723 7.305 9.481 8.35 9.335 C 8.986 9.245 9.624 9.191 10.267 9.221 C 11.265 9.266 12.246 9.43 13.212 9.679 C 13.877 9.851 14.529 10.06 15.152 10.354 C 15.295 10.422 15.431 10.503 15.571 10.578 C 15.611 10.599 15.627 10.621 15.597 10.666 Z M 14.994 11.393 C 14.995 11.592 14.825 11.76 14.624 11.759 C 14.425 11.758 14.264 11.599 14.263 11.399 C 14.261 11.191 14.418 11.031 14.623 11.03 C 14.827 11.029 14.993 11.192 14.994 11.393 Z M 4.828 11.391 C 4.831 11.187 4.995 11.028 5.201 11.03 C 5.408 11.031 5.561 11.191 5.558 11.402 C 5.555 11.604 5.397 11.76 5.195 11.759 C 4.992 11.758 4.825 11.59 4.828 11.391 Z M 16.072 10.471 C 16.051 10.496 16.023 10.495 15.996 10.485 C 15.97 10.475 15.944 10.465 15.921 10.45 C 15.328 10.052 14.667 9.805 13.991 9.593 C 13.065 9.301 12.118 9.105 11.153 8.993 C 10.742 8.945 10.329 8.913 10.099 8.918 C 8.92 8.923 7.943 9.065 6.976 9.285 C 6.205 9.46 5.449 9.683 4.724 10.003 C 4.452 10.122 4.189 10.258 3.94 10.421 C 3.884 10.458 3.81 10.539 3.753 10.463 C 3.698 10.389 3.785 10.325 3.841 10.278 C 4.152 10.018 4.503 9.818 4.872 9.652 C 5.966 9.16 7.121 8.894 8.305 8.736 C 8.86 8.662 9.417 8.613 9.976 8.624 C 11.57 8.656 13.123 8.925 14.613 9.507 C 15.093 9.695 15.55 9.929 15.954 10.255 C 16.002 10.295 16.047 10.337 16.075 10.394 C 16.087 10.42 16.093 10.447 16.072 10.471 Z" fill="url(#rNs8GJcAc-4017883278-linear-gradient)" height="36.203232722274734px" id="rNs8GJcAc" transform="translate(0 1.597)" width="19.81948663034205px"/><path d="M 0.096 1.959 C 0.293 1.955 0.49 1.961 0.686 1.956 C 0.762 1.954 0.791 1.974 0.787 2.053 C 0.781 2.194 0.786 2.336 0.785 2.477 C 0.785 2.528 0.792 2.557 0.855 2.53 C 1.152 2.404 1.451 2.403 1.749 2.527 C 1.81 2.553 1.821 2.532 1.82 2.477 C 1.819 2.336 1.824 2.194 1.818 2.054 C 1.815 1.974 1.843 1.954 1.919 1.956 C 2.115 1.961 2.312 1.955 2.508 1.959 C 2.577 1.96 2.596 1.937 2.595 1.87 C 2.592 1.612 2.592 1.353 2.595 1.095 C 2.596 1.028 2.577 1.005 2.508 1.006 C 2.319 1.01 2.129 1.003 1.939 1.009 C 1.852 1.012 1.828 0.984 1.829 0.898 C 1.832 0.599 1.827 0.3 1.825 0 L 0.769 0 C 0.768 0.303 0.765 0.606 0.768 0.909 C 0.769 0.986 0.746 1.011 0.668 1.009 C 0.475 1.004 0.282 1.01 0.089 1.006 C 0.021 1.004 0 1.026 0.001 1.094 C 0.004 1.352 0.005 1.61 0 1.868 C -0.001 1.945 0.028 1.96 0.096 1.959 Z" fill="url(#v_FcAClyZ-4017883278-linear-gradient)" height="2.5405929932330458px" id="v_FcAClyZ" transform="translate(8.612 0)" width="2.595490574998429px"/><path d="M 0.954 0 C 0.427 -0.003 0.003 0.414 0 0.937 C -0.003 1.457 0.425 1.884 0.947 1.883 C 1.469 1.883 1.885 1.467 1.886 0.944 C 1.887 0.418 1.477 0.003 0.954 0 Z" fill="url(#D9rAC7KwJ-4017883278-linear-gradient)" height="1.883382505044778px" id="D9rAC7KwJ" transform="translate(8.971 2.623)" width="1.885815695908029px"/><path d="M 6.973 6.914 C 6.951 6.876 6.996 6.847 7.016 6.818 C 7.122 6.666 7.187 6.497 7.231 6.319 C 7.322 5.952 7.288 5.579 7.296 5.208 C 7.297 5.152 7.265 5.149 7.223 5.149 C 7.043 5.15 6.864 5.153 6.685 5.147 C 6.607 5.145 6.593 5.176 6.595 5.244 C 6.598 5.361 6.6 5.479 6.591 5.595 C 6.581 5.733 6.5 5.815 6.381 5.825 C 6.274 5.834 6.199 5.771 6.163 5.632 C 6.125 5.485 6.112 5.334 6.113 5.182 C 6.12 4.612 5.842 4.201 5.388 3.89 C 5.217 3.773 5.023 3.704 4.798 3.649 C 4.953 3.609 5.086 3.585 5.21 3.535 C 5.679 3.346 6.05 3.054 6.196 2.549 C 6.327 2.096 6.259 1.646 6.113 1.21 C 5.954 0.735 5.588 0.457 5.14 0.272 C 4.63 0.062 4.092 0.015 3.549 0.004 C 3.155 -0.004 2.762 0.002 2.368 0.002 C 1.612 0.002 0.857 0.003 0.101 0.001 C 0.026 0 -0.001 0.017 0 0.097 C 0.004 0.486 0.004 0.875 0 1.265 C 0 1.34 0.016 1.369 0.097 1.365 C 0.221 1.358 0.346 1.369 0.469 1.361 C 0.562 1.355 0.585 1.385 0.584 1.476 C 0.581 2.513 0.582 3.55 0.582 4.587 C 0.582 4.987 0.58 5.386 0.584 5.786 C 0.585 5.868 0.56 5.894 0.478 5.891 C 0.354 5.884 0.23 5.893 0.106 5.887 C 0.026 5.884 -0.001 5.906 0 5.99 C 0.004 6.379 0.005 6.768 0 7.158 C -0.001 7.242 0.027 7.26 0.106 7.26 C 0.651 7.257 1.196 7.258 1.742 7.258 C 2.249 7.258 2.756 7.257 3.264 7.259 C 3.331 7.259 3.361 7.247 3.361 7.17 C 3.357 6.77 3.358 6.37 3.36 5.971 C 3.361 5.908 3.342 5.886 3.278 5.888 C 3.119 5.891 2.96 5.887 2.802 5.89 C 2.747 5.891 2.721 5.879 2.721 5.816 C 2.723 5.327 2.723 4.838 2.721 4.349 C 2.721 4.294 2.741 4.276 2.794 4.278 C 2.953 4.287 3.11 4.296 3.266 4.332 C 3.523 4.391 3.673 4.549 3.718 4.808 C 3.742 4.944 3.756 5.081 3.757 5.219 C 3.757 5.453 3.757 5.687 3.798 5.919 C 3.904 6.517 4.192 6.981 4.777 7.217 C 5.196 7.385 5.635 7.409 6.079 7.362 C 6.223 7.347 6.222 7.341 6.222 7.484 C 6.222 7.722 6.226 7.96 6.22 8.197 C 6.219 8.276 6.244 8.298 6.321 8.295 C 6.459 8.289 6.597 8.3 6.735 8.291 C 6.836 8.285 6.869 8.31 6.868 8.419 C 6.863 9.15 6.865 9.88 6.865 10.61 C 6.865 11.293 6.866 11.975 6.865 12.657 C 6.865 12.819 6.884 12.796 6.72 12.797 C 6.585 12.798 6.45 12.801 6.316 12.796 C 6.246 12.794 6.22 12.811 6.221 12.886 C 6.224 13.286 6.224 13.686 6.221 14.085 C 6.22 14.155 6.236 14.181 6.312 14.181 C 7.54 14.178 8.769 14.179 9.998 14.18 C 10.068 14.18 10.093 14.165 10.092 14.09 C 10.089 13.69 10.088 13.291 10.093 12.891 C 10.093 12.81 10.066 12.795 9.992 12.796 C 9.709 12.8 9.426 12.794 9.143 12.799 C 9.061 12.801 9.029 12.785 9.031 12.694 C 9.036 12.322 9.036 11.95 9.031 11.578 C 9.03 11.493 9.058 11.475 9.137 11.476 C 9.727 11.479 10.317 11.476 10.907 11.479 C 10.983 11.479 11.008 11.46 11.007 11.381 C 11.003 10.992 11.002 10.603 11.007 10.214 C 11.008 10.122 10.987 10.091 10.889 10.092 C 10.306 10.097 9.722 10.092 9.139 10.096 C 9.051 10.097 9.03 10.07 9.031 9.986 C 9.035 9.455 9.035 8.924 9.031 8.394 C 9.03 8.31 9.057 8.291 9.137 8.292 C 9.589 8.295 10.041 8.296 10.493 8.292 C 10.577 8.291 10.608 8.313 10.606 8.401 C 10.6 8.642 10.606 8.883 10.602 9.124 C 10.601 9.193 10.618 9.22 10.693 9.22 C 11.245 9.217 11.798 9.217 12.35 9.22 C 12.42 9.22 12.447 9.202 12.447 9.128 C 12.445 8.428 12.445 7.729 12.446 7.03 C 12.447 6.951 12.424 6.924 12.34 6.925 C 11.944 6.929 11.547 6.927 11.15 6.927 C 9.79 6.927 8.43 6.927 7.07 6.926 C 7.037 6.926 6.99 6.943 6.973 6.914 Z M 3.391 3.105 C 3.195 3.126 2.999 3.112 2.803 3.12 C 2.738 3.123 2.72 3.099 2.721 3.037 C 2.724 2.768 2.722 2.5 2.722 2.231 C 2.722 1.97 2.722 1.708 2.722 1.447 C 2.722 1.403 2.711 1.351 2.782 1.352 C 3.047 1.356 3.314 1.328 3.575 1.392 C 3.955 1.484 4.158 1.748 4.187 2.173 C 4.223 2.713 3.935 3.047 3.391 3.105 Z" fill="url(#l4Gwa0YFL-4017883278-linear-gradient)" height="14.180606486273655px" id="l4Gwa0YFL" transform="translate(3.866 17.488)" width="12.446817191723412px"/><path d="M 0.501 0 C 0.218 -0.001 0.001 0.212 0 0.493 C -0.001 0.779 0.207 0.994 0.489 0.997 C 0.776 1 0.996 0.784 0.996 0.499 C 0.996 0.218 0.782 0.002 0.501 0 Z M 0.5 0.866 C 0.304 0.869 0.129 0.697 0.128 0.499 C 0.127 0.307 0.294 0.137 0.488 0.13 C 0.682 0.124 0.861 0.295 0.866 0.493 C 0.87 0.688 0.699 0.863 0.5 0.866 Z" fill="url(#HpDjV3xVO-4017883278-linear-gradient)" height="1px" id="HpDjV3xVO" transform="translate(6.938 11.781)" width="1px"/><path d="M 0.495 0 C 0.215 0.001 0 0.217 0 0.499 C 0 0.781 0.215 0.997 0.497 0.997 C 0.774 0.997 0.998 0.778 1.003 0.503 C 1.008 0.228 0.777 -0.001 0.495 0 Z M 0.498 0.866 C 0.293 0.863 0.135 0.701 0.137 0.495 C 0.138 0.295 0.298 0.132 0.495 0.13 C 0.691 0.128 0.866 0.301 0.867 0.497 C 0.867 0.696 0.695 0.869 0.499 0.866 Z" fill="url(#XAu2DqpwS-4017883278-linear-gradient)" height="1px" id="XAu2DqpwS" transform="translate(11.887 11.781)" width="1.00317127475188px"/><path d="M 0.503 0 C 0.225 -0.003 -0.001 0.224 0 0.505 C 0.001 0.787 0.215 0.999 0.499 0.999 C 0.781 0.999 0.996 0.785 0.996 0.504 C 0.997 0.224 0.78 0.003 0.503 0 Z M 0.494 0.869 C 0.299 0.865 0.131 0.698 0.128 0.506 C 0.126 0.311 0.302 0.133 0.496 0.135 C 0.7 0.136 0.861 0.299 0.861 0.504 C 0.86 0.708 0.694 0.874 0.494 0.869 Z" fill="url(#OfMLMa6Db-4017883278-linear-gradient)" height="1px" id="OfMLMa6Db" transform="translate(9.419 11.362)" width="1px"/></g></svg>